<?xml version="1.0" encoding="UTF-8"?>
<svg xmlns="http://www.w3.org/2000/svg" xmlns:xlink="http://www.w3.org/1999/xlink" width="20pt" height="20pt" viewBox="0 0 20 20" version="1.1">
<g id="surface1">
<path style=" stroke:none;fill-rule:nonzero;fill:rgb(33.333333%,51.764706%,96.470588%);fill-opacity:1;" d="M 9.472656 0.0546875 L 9.472656 0.109375 L 9.265625 0.125 C 8.800781 0.15625 8.0625 0.28125 7.558594 0.414062 C 5.445312 0.96875 3.613281 2.167969 2.242188 3.890625 C 1.054688 5.382812 0.28125 7.316406 0.132812 9.171875 L 0.109375 9.472656 L 0 9.472656 L 0 10.546875 L 0.0585938 10.546875 C 0.117188 10.546875 0.117188 10.550781 0.117188 10.632812 C 0.117188 10.683594 0.132812 10.851562 0.148438 11 C 0.519531 14.382812 2.570312 17.328125 5.625 18.859375 C 6.070312 19.078125 6.726562 19.351562 6.953125 19.402344 C 7.046875 19.421875 7.210938 19.359375 7.296875 19.265625 C 7.4375 19.117188 7.441406 19.109375 7.429688 18.125 C 7.414062 17.265625 7.414062 17.265625 7.375 17.273438 C 7.210938 17.3125 6.96875 17.328125 6.523438 17.335938 C 6.109375 17.34375 5.960938 17.34375 5.773438 17.316406 C 5.203125 17.234375 4.789062 17.046875 4.460938 16.710938 C 4.28125 16.523438 4.21875 16.421875 4.085938 16.117188 C 3.789062 15.441406 3.335938 14.820312 3.007812 14.632812 C 2.851562 14.542969 2.683594 14.40625 2.625 14.3125 C 2.585938 14.253906 2.570312 14.203125 2.5625 14.109375 C 2.554688 13.960938 2.578125 13.914062 2.691406 13.859375 C 2.773438 13.824219 2.820312 13.820312 3.105469 13.820312 C 3.390625 13.820312 3.445312 13.824219 3.574219 13.863281 C 3.75 13.917969 3.96875 14.03125 4.117188 14.148438 C 4.308594 14.296875 4.578125 14.59375 4.738281 14.835938 C 5.042969 15.304688 5.296875 15.546875 5.65625 15.722656 C 6.007812 15.898438 6.359375 15.953125 6.71875 15.890625 C 6.914062 15.859375 7.230469 15.765625 7.382812 15.699219 L 7.476562 15.664062 L 7.496094 15.53125 C 7.550781 15.203125 7.6875 14.855469 7.859375 14.609375 L 7.945312 14.484375 L 7.679688 14.441406 C 6.703125 14.289062 5.960938 14.03125 5.367188 13.640625 C 4.3125 12.945312 3.742188 11.867188 3.59375 10.292969 C 3.554688 9.898438 3.5625 9.078125 3.601562 8.796875 C 3.710938 8.074219 3.976562 7.453125 4.414062 6.90625 L 4.535156 6.75 L 4.484375 6.546875 C 4.457031 6.429688 4.425781 6.269531 4.414062 6.1875 C 4.382812 5.953125 4.390625 5.265625 4.421875 5.023438 C 4.457031 4.796875 4.5625 4.382812 4.636719 4.179688 C 4.679688 4.070312 4.6875 4.054688 4.75 4.039062 C 4.84375 4.011719 5.3125 4.03125 5.488281 4.070312 C 5.835938 4.148438 6.203125 4.28125 6.621094 4.492188 C 6.890625 4.625 7.25 4.828125 7.445312 4.964844 L 7.558594 5.039062 L 7.757812 4.992188 C 8.476562 4.816406 9.121094 4.746094 10.03125 4.746094 C 10.921875 4.746094 11.511719 4.808594 12.242188 4.984375 L 12.484375 5.039062 L 12.664062 4.925781 C 13.328125 4.496094 14.035156 4.175781 14.539062 4.070312 C 14.726562 4.03125 15.105469 4.011719 15.257812 4.03125 L 15.367188 4.046875 L 15.449219 4.292969 C 15.617188 4.796875 15.675781 5.21875 15.65625 5.789062 C 15.648438 6.144531 15.617188 6.359375 15.546875 6.609375 L 15.507812 6.75 L 15.617188 6.875 C 16.054688 7.421875 16.320312 8.015625 16.4375 8.726562 C 16.488281 9.015625 16.488281 10.101562 16.4375 10.488281 C 16.171875 12.585938 15.132812 13.785156 13.140625 14.289062 C 12.867188 14.355469 12.234375 14.472656 12.140625 14.472656 C 12.085938 14.472656 12.078125 14.496094 12.117188 14.53125 C 12.226562 14.621094 12.421875 15.039062 12.5 15.332031 C 12.59375 15.6875 12.597656 15.8125 12.597656 17.480469 C 12.597656 19.019531 12.601562 19.054688 12.640625 19.140625 C 12.6875 19.25 12.742188 19.308594 12.832031 19.355469 C 13 19.4375 13.0625 19.429688 13.625 19.203125 C 15.460938 18.476562 17.09375 17.15625 18.210938 15.488281 C 18.660156 14.820312 19.058594 14.03125 19.335938 13.257812 C 19.609375 12.496094 19.828125 11.480469 19.875 10.734375 L 19.890625 10.527344 L 20 10.527344 L 20 9.472656 L 19.890625 9.472656 L 19.867188 9.171875 C 19.765625 7.910156 19.351562 6.523438 18.730469 5.371094 C 17.785156 3.617188 16.382812 2.214844 14.628906 1.269531 C 13.476562 0.648438 12.09375 0.234375 10.828125 0.132812 L 10.527344 0.109375 L 10.527344 0 L 9.472656 0 Z M 9.472656 0.0546875 "/>
</g>
</svg>
