<?xml version="1.0" standalone="no"?>
<!DOCTYPE svg PUBLIC "-//W3C//DTD SVG 20010904//EN"
 "http://www.w3.org/TR/2001/REC-SVG-20010904/DTD/svg10.dtd">
<svg version="1.0" xmlns="http://www.w3.org/2000/svg"
 width="620.000000pt" height="620.000000pt" viewBox="0 0 620.000000 620.000000"
 preserveAspectRatio="xMidYMid meet">
<metadata>
Created by potrace 1.15, written by Peter Selinger 2001-2017
</metadata>
<g transform="translate(0.000000,620.000000) scale(0.100000,-0.100000)"
fill="#5584F6" stroke="none">
<path d="M1408 6101 c-72 -37 -143 -91 -343 -262 -185 -158 -305 -281 -389
-398 -266 -372 -401 -827 -367 -1240 53 -635 422 -1410 1038 -2179 847 -1056
1680 -1690 2495 -1897 118 -30 315 -65 369 -65 37 0 39 -2 39 -30 0 -30 1 -30
55 -30 54 0 55 1 55 29 0 28 1 28 76 35 248 20 599 146 829 296 234 153 616
512 667 628 18 41 19 45 3 93 -29 88 -112 197 -265 350 -223 223 -512 460
-689 563 -98 58 -216 105 -280 113 -120 13 -293 -100 -606 -396 -130 -124
-173 -159 -234 -189 l-75 -37 -221 0 c-246 0 -260 3 -410 77 -193 96 -386 249
-640 509 -499 511 -832 1015 -884 1339 -14 83 -14 341 -1 411 15 81 61 168
117 225 28 27 106 93 174 146 199 155 350 297 407 381 55 84 85 159 84 218 -2
138 -144 437 -365 769 -208 311 -356 473 -498 545 -61 31 -71 31 -141 -4z"/>
</g>
</svg>
