<?xml version="1.0" standalone="no"?>
<!DOCTYPE svg PUBLIC "-//W3C//DTD SVG 20010904//EN"
 "http://www.w3.org/TR/2001/REC-SVG-20010904/DTD/svg10.dtd">
<svg version="1.0" xmlns="http://www.w3.org/2000/svg"
 width="488.000000pt" height="494.000000pt" viewBox="0 0 488.000000 494.000000"
 preserveAspectRatio="xMidYMid meet">
<metadata>
Created by potrace 1.15, written by Peter Selinger 2001-2017
</metadata>
<g transform="translate(0.000000,494.000000) scale(0.100000,-0.100000)"
fill="#5584F6" stroke="none">
<path d="M2344 4895 c4 -11 -1 -15 -17 -15 -18 0 -19 2 -7 10 12 8 10 10 -8
10 -13 0 -20 -4 -17 -10 3 -5 1 -10 -4 -10 -6 0 -11 5 -11 10 0 6 -7 10 -16
10 -10 0 -14 -6 -10 -15 4 -12 -3 -15 -32 -14 -33 1 -34 2 -12 9 17 5 5 7 -37
6 -41 0 -63 -5 -63 -12 0 -7 -7 -15 -16 -18 -14 -5 -15 -4 -4 9 10 12 10 15
-4 15 -9 0 -16 -7 -16 -15 0 -8 -8 -15 -17 -15 -15 0 -15 2 -4 9 10 6 2 9 -23
8 -26 -1 -35 -5 -32 -14 3 -7 -1 -13 -10 -13 -8 0 -12 5 -9 10 3 6 1 10 -4 10
-6 0 -11 -4 -11 -8 0 -5 -14 -8 -30 -7 -20 1 -29 -2 -26 -10 2 -6 -2 -12 -10
-12 -7 0 -11 4 -9 8 7 11 -38 -2 -55 -16 -8 -7 -22 -16 -30 -20 -12 -7 -13 -6
-3 6 11 13 8 15 -17 11 -19 -3 -30 -10 -31 -21 0 -9 -3 -11 -5 -4 -3 7 -12 9
-20 6 -7 -3 -11 -10 -7 -16 3 -6 1 -7 -6 -3 -6 4 -25 4 -43 1 -22 -5 -27 -9
-17 -16 10 -6 7 -9 -11 -10 -14 -1 -31 -1 -38 0 -7 1 -37 -9 -67 -23 -29 -15
-59 -26 -64 -26 -6 0 -11 -8 -11 -17 0 -12 -3 -14 -8 -7 -8 14 -95 -23 -87
-36 3 -4 -2 -11 -11 -14 -9 -4 -13 -2 -8 5 4 7 0 7 -15 -1 -12 -6 -19 -16 -15
-22 4 -6 1 -9 -7 -6 -21 8 -91 -30 -83 -44 5 -7 2 -9 -8 -5 -16 6 -87 -36
-101 -60 -5 -7 -12 -11 -18 -8 -5 4 -9 -1 -9 -10 0 -11 -5 -15 -14 -12 -9 4
-29 -7 -46 -23 -17 -16 -32 -28 -33 -28 -8 6 -55 -36 -50 -45 3 -6 1 -7 -5 -3
-7 4 -12 2 -12 -4 0 -6 -4 -9 -9 -6 -5 4 -21 -8 -35 -25 -14 -17 -26 -27 -26
-23 0 4 -16 -7 -35 -26 -19 -18 -31 -38 -28 -43 3 -6 1 -7 -4 -4 -6 4 -14 0
-17 -9 -3 -8 -10 -13 -14 -10 -11 7 -85 -68 -76 -77 4 -4 -1 -9 -10 -13 -9 -3
-13 -11 -9 -17 3 -5 1 -7 -5 -3 -15 9 -134 -125 -127 -144 4 -8 3 -12 0 -8 -9
8 -45 -23 -45 -38 0 -7 -7 -15 -16 -18 -9 -4 -14 -13 -10 -21 3 -9 0 -15 -8
-15 -17 0 -69 -77 -61 -90 3 -6 -1 -10 -9 -10 -9 0 -16 -4 -16 -10 0 -5 0 -12
0 -15 0 -3 -9 -14 -20 -25 -12 -12 -18 -25 -15 -30 4 -6 1 -10 -5 -10 -6 0
-16 -12 -23 -27 -6 -16 -17 -34 -24 -41 -7 -7 -9 -20 -6 -29 4 -11 3 -14 -5
-9 -11 6 -17 -5 -13 -26 0 -5 -4 -8 -10 -8 -5 0 -7 -5 -4 -11 4 -6 -2 -19 -14
-30 -12 -11 -19 -24 -16 -29 3 -4 -1 -11 -7 -13 -10 -4 -10 -8 1 -15 10 -8 9
-12 -6 -23 -29 -21 -37 -40 -22 -50 11 -7 10 -9 -4 -9 -10 0 -17 -6 -16 -12 4
-31 -2 -49 -13 -42 -7 5 -9 2 -5 -9 3 -9 1 -18 -6 -21 -8 -3 -7 -5 2 -5 11 -1
10 -6 -5 -23 -13 -14 -14 -19 -4 -14 8 4 6 0 -4 -8 -12 -9 -14 -16 -7 -16 14
0 5 -41 -12 -51 -5 -4 -7 -11 -3 -17 3 -6 0 -17 -8 -25 -8 -8 -12 -17 -9 -21
4 -3 -2 -12 -12 -20 -14 -10 -17 -21 -12 -44 4 -20 2 -32 -6 -36 -9 -3 -9 -5
1 -5 6 -1 12 -6 12 -12 0 -6 -7 -9 -15 -5 -11 4 -15 -2 -15 -22 0 -21 2 -24
10 -12 13 20 12 6 -1 -41 -7 -21 -16 -36 -20 -33 -5 3 -9 -11 -9 -30 0 -20 4
-36 8 -36 5 0 6 -19 2 -43 -3 -23 -6 -66 -5 -95 1 -28 -3 -52 -8 -52 -4 0 -5
10 -2 21 5 15 4 19 -4 15 -7 -5 -11 -58 -11 -156 0 -129 2 -149 15 -144 18 7
20 -7 3 -25 -9 -10 -9 -12 -1 -7 6 3 14 2 18 -4 3 -5 2 -10 -2 -10 -13 0 -9
-162 5 -186 7 -14 8 -24 1 -31 -12 -12 -1 -86 11 -78 4 3 10 -4 13 -15 3 -11
1 -18 -3 -15 -5 3 -7 -3 -5 -12 2 -10 4 -26 4 -36 1 -10 5 -16 10 -13 5 3 11
-1 15 -9 3 -8 1 -17 -3 -20 -12 -7 4 -76 20 -85 6 -4 9 -12 5 -18 -3 -6 -1
-12 4 -14 6 -2 12 -15 14 -30 1 -14 11 -38 20 -53 10 -15 13 -24 7 -21 -6 4
-11 2 -11 -3 0 -6 5 -11 11 -11 6 0 9 -6 6 -12 -2 -7 1 -22 6 -33 6 -11 12
-26 13 -34 2 -8 10 -19 20 -24 12 -7 13 -11 4 -17 -8 -5 -7 -11 5 -23 8 -9 15
-19 15 -22 -3 -13 64 -141 77 -148 15 -9 36 -52 38 -75 0 -7 7 -17 15 -22 8
-5 11 -10 6 -10 -6 0 -2 -6 7 -12 9 -7 17 -19 19 -26 2 -8 15 -27 30 -44 16
-16 26 -34 23 -38 -3 -4 2 -11 10 -14 8 -3 14 -10 13 -15 -2 -5 6 -17 17 -26
11 -9 13 -14 5 -10 -8 4 1 -8 20 -25 19 -17 28 -29 20 -25 -8 4 -6 -1 5 -10
11 -9 20 -20 20 -25 0 -5 23 -30 50 -56 28 -25 41 -40 30 -33 -16 10 -15 7 4
-14 14 -15 31 -27 38 -27 8 0 12 -4 8 -9 -3 -5 4 -12 15 -16 11 -4 18 -10 15
-14 -6 -11 61 -71 71 -63 4 4 4 2 1 -4 -3 -6 10 -26 31 -45 26 -24 31 -26 17
-8 -11 14 -5 9 13 -10 19 -20 38 -35 43 -34 5 2 8 0 6 -5 -1 -4 0 -7 3 -8 18
-3 50 -27 45 -34 -3 -5 0 -12 6 -16 8 -4 9 -3 5 4 -4 7 -2 12 3 12 6 0 11 -6
11 -14 0 -7 8 -20 17 -27 11 -10 14 -10 9 -2 -10 18 -2 16 24 -7 13 -11 19
-20 14 -20 -5 0 -1 -5 8 -11 10 -5 20 -8 22 -7 3 2 12 -6 20 -17 9 -11 16 -17
16 -13 0 4 11 -4 25 -17 13 -14 34 -25 45 -25 12 0 18 -5 15 -10 -3 -6 3 -10
14 -10 12 0 21 -5 21 -11 0 -5 15 -16 34 -24 19 -8 38 -20 41 -26 4 -5 14 -8
22 -5 9 4 11 2 7 -6 -5 -8 -2 -9 10 -5 9 4 15 3 12 -1 -7 -12 63 -44 76 -36 6
4 8 2 4 -4 -6 -10 17 -22 53 -28 8 -2 17 -7 20 -12 9 -13 88 -42 95 -35 3 4 6
2 6 -4 0 -6 9 -13 20 -16 11 -3 20 -1 20 3 0 5 8 7 18 5 9 -2 22 -4 27 -4 6
-1 4 -5 -3 -10 -11 -7 -11 -9 2 -14 9 -4 16 -3 16 2 0 4 7 8 15 8 8 0 12 -4 9
-8 -2 -4 5 -13 17 -19 15 -8 19 -9 15 -1 -10 16 3 13 21 -5 11 -11 19 -12 26
-5 14 14 27 14 27 0 0 -5 -6 -7 -12 -3 -8 4 -10 3 -5 -2 5 -5 13 -10 18 -10 5
-1 10 -2 12 -4 8 -6 36 -7 32 0 -7 11 22 7 32 -5 4 -4 2 -5 -6 0 -9 5 -12 4
-7 -3 5 -9 12 -8 27 1 17 10 22 9 31 -7 8 -15 12 -16 19 -5 7 11 9 10 9 -3 0
-10 5 -18 10 -18 6 0 10 4 10 8 0 12 52 13 66 1 8 -6 20 -9 28 -6 10 4 13 1 9
-9 -5 -15 8 -19 21 -6 12 11 30 9 42 -6 8 -12 12 -11 23 2 8 9 19 16 25 16 7
0 6 -4 -2 -9 -10 -6 -8 -10 8 -14 16 -4 20 -2 16 9 -4 11 -1 12 12 6 9 -5 31
-7 47 -5 33 5 24 -12 -9 -19 -11 -1 55 -3 147 -3 91 0 157 3 146 7 -33 12 -21
16 41 12 45 -2 59 0 54 9 -5 8 -3 8 7 -1 16 -14 43 -16 34 -2 -4 6 4 6 21 0
19 -8 29 -8 34 0 4 6 15 11 26 11 27 -1 56 -1 76 0 9 0 19 7 22 15 3 8 10 14
16 14 6 0 9 -4 5 -9 -3 -6 4 -8 16 -6 13 3 26 10 31 17 6 10 8 9 8 -2 0 -11 3
-11 8 -3 4 6 14 11 22 11 35 -2 50 3 50 17 0 8 5 15 10 15 6 0 10 -5 10 -12 0
-6 8 -4 19 6 15 13 20 14 24 4 4 -9 6 -8 6 3 1 9 10 19 22 22 16 4 18 3 8 -9
-16 -19 5 -19 25 1 8 8 23 12 33 9 13 -4 15 -3 4 4 -8 6 -9 12 -3 16 6 3 13 2
17 -3 7 -12 65 6 65 20 0 6 6 9 13 7 18 -3 87 22 87 33 0 5 7 9 15 9 8 0 25
10 36 21 14 14 24 17 28 11 6 -11 34 -1 32 12 -3 17 0 20 8 7 7 -11 13 -9 30
8 11 11 26 21 32 21 21 0 149 81 149 95 0 9 6 12 15 9 8 -4 15 -1 15 5 0 6 7
11 15 11 8 0 15 7 15 16 0 8 4 13 9 10 14 -9 69 26 75 48 3 12 10 17 21 12 9
-3 13 -2 10 4 -3 6 -1 10 5 10 6 0 21 11 34 25 13 14 27 25 32 25 5 0 16 9 24
19 7 11 18 17 23 14 6 -3 7 -1 4 4 -7 11 16 37 25 28 8 -8 188 173 188 189 0
8 5 18 12 22 7 5 8 3 3 -6 -6 -9 -4 -11 4 -6 7 5 10 15 7 23 -4 11 -2 13 9 9
8 -3 15 -2 15 3 0 5 12 20 26 35 15 14 23 26 19 26 -4 0 4 10 19 21 15 12 25
28 22 35 -3 8 1 14 10 14 8 0 21 14 28 30 7 17 15 27 19 24 4 -4 10 7 13 24 4
17 11 30 18 29 6 -1 10 6 10 15 -1 10 2 16 6 13 7 -4 24 24 20 33 -1 2 6 9 16
16 11 8 14 18 9 26 -5 8 -4 11 3 6 12 -7 35 27 25 38 -3 3 -1 6 5 6 7 0 12 6
12 14 0 8 7 22 16 30 8 9 12 22 8 28 -4 7 -3 10 1 5 10 -9 46 64 38 77 -4 5
-1 6 6 2 7 -5 13 3 17 23 4 17 10 31 14 31 5 0 13 12 18 28 5 15 14 36 18 47
7 18 6 19 -12 6 -10 -8 -7 -2 9 13 30 30 32 37 16 53 -8 8 -7 13 2 18 8 5 10
4 5 -3 -4 -7 -2 -12 4 -12 6 0 10 8 8 18 -1 9 6 30 17 46 12 19 19 45 18 77 0
33 3 49 12 49 16 0 46 118 31 123 -6 2 -3 15 8 31 10 16 13 25 7 22 -17 -11
-13 5 6 26 15 17 15 18 -3 18 -17 1 -18 2 -2 13 12 9 14 17 6 30 -7 13 -4 27
11 51 23 37 27 51 10 41 -13 -9 -7 48 10 89 6 16 10 37 8 45 -3 10 -5 8 -6 -6
0 -13 -4 -23 -9 -23 -4 0 -6 18 -4 40 2 22 8 37 13 34 5 -3 9 24 9 60 0 42 -4
66 -12 69 -10 4 -10 6 0 6 7 1 12 14 12 32 0 17 -4 28 -10 24 -5 -3 -10 4 -11
17 0 13 -2 33 -3 46 -3 26 10 17 17 -13 4 -15 5 -14 6 7 0 15 -6 33 -14 42
-18 18 -19 32 -2 40 10 5 10 7 0 12 -7 3 -13 12 -13 20 0 9 5 12 10 9 6 -3 10
-1 10 4 0 6 -4 11 -8 11 -5 0 -7 13 -4 29 2 16 -1 32 -8 36 -9 5 -10 1 -5 -16
4 -13 4 -21 0 -17 -12 12 -14 58 -3 58 6 0 3 10 -8 22 -19 21 -19 21 1 15 17
-6 18 -5 4 5 -21 18 -29 44 -17 56 15 15 0 72 -19 72 -12 0 -13 3 -4 14 13 15
5 66 -10 66 -5 0 -4 -12 2 -27 7 -18 7 -24 0 -18 -5 6 -12 26 -16 45 -4 25 -3
31 5 20 5 -9 10 -10 10 -3 0 21 -12 43 -21 37 -9 -5 -13 15 -9 50 1 11 -3 15
-9 12 -6 -4 -11 -1 -12 6 -4 59 -10 83 -22 90 -10 5 -13 16 -9 30 4 16 2 19
-8 13 -8 -5 -11 -4 -6 3 3 6 -1 29 -10 52 -10 25 -20 37 -24 30 -5 -8 -9 -7
-14 5 -8 23 -8 27 4 20 21 -13 -22 73 -113 228 -21 37 -44 67 -49 67 -5 0 -7
4 -3 9 3 5 -12 26 -32 47 -21 20 -32 34 -25 29 22 -12 0 23 -42 69 -20 21 -36
41 -36 43 0 11 -65 78 -73 75 -5 -1 -6 1 -3 6 6 10 -40 62 -55 62 -6 0 -8 4
-5 8 3 5 -27 40 -66 78 -39 38 -68 62 -64 54 4 -8 -2 -3 -14 13 -12 15 -27 24
-32 21 -6 -4 -8 -2 -5 3 4 6 -2 18 -13 28 -11 10 -20 14 -20 10 0 -5 -6 0 -14
11 -8 10 -19 19 -24 19 -5 0 -23 15 -40 33 -19 20 -36 31 -43 26 -7 -4 -9 -3
-5 4 8 14 -50 55 -65 46 -7 -4 -9 -3 -6 3 9 15 -199 151 -211 139 -3 -3 -10 1
-16 9 -20 26 -165 93 -188 87 -14 -3 -19 -2 -14 6 6 11 -6 17 -27 13 -4 -1
-17 7 -28 18 -11 10 -31 18 -45 16 -13 -1 -21 2 -18 6 3 5 -1 9 -8 9 -7 0 -26
7 -42 15 -26 14 -28 14 -22 -3 5 -15 4 -15 -7 -2 -23 27 -59 43 -67 30 -6 -10
-12 -10 -26 0 -17 10 -17 11 -1 6 11 -3 15 -2 12 4 -9 14 -32 12 -38 -2 -4
-10 -7 -10 -15 0 -18 26 -62 41 -109 36 -29 -2 -43 0 -35 5 11 7 10 10 -3 15
-24 9 -28 8 -22 -7 4 -10 -5 -9 -31 4 -47 22 -102 34 -102 21 0 -5 -26 -3 -62
5 -50 12 -63 12 -70 1 -8 -10 -11 -10 -15 0 -2 6 -13 12 -23 12 -10 0 -21 -6
-23 -12 -3 -8 -6 -6 -6 5 -1 15 -12 17 -92 17 -77 0 -90 -2 -85 -15z m-767
-1173 c66 -34 110 -78 140 -140 37 -75 39 -182 5 -258 -29 -64 -92 -126 -157
-156 -70 -32 -227 -32 -297 -1 -63 29 -119 81 -148 140 -21 41 -25 62 -25 143
0 113 17 153 93 221 73 66 116 79 242 76 85 -2 113 -7 147 -25z m1634 -767
c182 -15 354 -125 452 -287 50 -83 93 -220 107 -343 7 -65 10 -281 8 -620 l-3
-520 -292 -3 -293 -2 0 487 c0 271 -5 519 -10 558 -19 132 -89 228 -186 255
-61 17 -169 8 -221 -18 -54 -28 -108 -84 -142 -147 l-26 -50 -3 -543 -3 -542
-294 0 -295 0 0 870 0 870 295 0 295 0 0 -111 0 -112 22 29 c74 99 168 169
274 204 63 21 188 40 229 34 11 -2 50 -5 86 -9z m-1501 -905 l0 -870 -292 2
-293 3 -3 868 -2 867 295 0 295 0 0 -870z"/>
</g>
</svg>
