<?xml version="1.0" standalone="no"?>
<!DOCTYPE svg PUBLIC "-//W3C//DTD SVG 20010904//EN"
 "http://www.w3.org/TR/2001/REC-SVG-20010904/DTD/svg10.dtd">
<svg version="1.0" xmlns="http://www.w3.org/2000/svg"
 width="1024.000000pt" height="1024.000000pt" viewBox="0 0 1024.000000 1024.000000"
 preserveAspectRatio="xMidYMid meet">
<metadata>
Created by potrace 1.15, written by Peter Selinger 2001-2017
</metadata>
<g transform="translate(0.000000,1024.000000) scale(0.100000,-0.100000)"
fill="#5584F6" stroke="none">
<path d="M4850 10211 l0 -28 -107 -7 c-237 -15 -614 -79 -873 -147 -1081 -284
-2020 -899 -2723 -1782 -608 -763 -1003 -1753 -1079 -2704 l-12 -153 -28 0
-28 0 0 -275 0 -275 30 0 c29 0 30 -2 30 -45 0 -25 7 -110 16 -188 190 -1731
1241 -3239 2804 -4022 227 -114 564 -252 681 -279 48 -11 130 22 176 70 72 75
73 81 66 584 -6 439 -6 440 -27 435 -84 -18 -207 -27 -436 -32 -213 -4 -288
-2 -383 11 -293 41 -505 139 -672 311 -92 94 -125 146 -194 303 -152 346 -383
664 -551 760 -81 46 -166 117 -197 163 -20 31 -28 57 -31 104 -5 78 7 101 66
128 42 19 65 22 212 22 145 0 174 -3 240 -23 90 -28 201 -86 278 -146 98 -75
237 -229 318 -353 156 -239 285 -364 469 -453 182 -89 362 -117 545 -86 99 17
262 64 341 98 l46 19 11 68 c28 167 98 345 186 471 l45 65 -137 21 c-500 78
-879 209 -1185 411 -539 355 -832 908 -908 1713 -19 201 -16 622 5 765 55 371
191 688 416 969 l62 79 -25 106 c-15 58 -31 141 -37 184 -16 120 -13 471 5
596 17 116 71 328 109 431 21 57 27 65 57 73 48 13 289 2 379 -18 178 -38 367
-108 580 -214 139 -70 321 -174 423 -243 l57 -39 103 25 c367 90 697 126 1162
126 457 0 759 -32 1134 -121 l124 -29 91 58 c340 220 702 384 961 437 95 20
289 31 367 21 l56 -7 42 -127 c86 -257 116 -475 107 -767 -6 -181 -20 -291
-56 -420 l-20 -70 54 -66 c224 -278 361 -584 422 -948 25 -148 25 -702 0 -901
-136 -1073 -670 -1688 -1689 -1945 -139 -35 -463 -95 -513 -95 -28 0 -32 -12
-10 -30 55 -46 156 -259 195 -410 47 -183 50 -245 50 -1100 0 -788 1 -806 21
-850 25 -55 53 -86 99 -110 85 -43 117 -37 405 77 940 373 1776 1050 2350
1903 229 341 433 746 575 1142 140 390 251 910 276 1291 l7 107 28 0 29 0 0
270 0 270 -28 0 -28 0 -12 153 c-52 647 -264 1358 -582 1947 -484 897 -1203
1616 -2100 2100 -590 319 -1299 530 -1947 582 l-153 12 0 28 0 28 -270 0 -270
0 0 -29z"/>
</g>
</svg>
