<?xml version="1.0" standalone="no"?>
<!DOCTYPE svg PUBLIC "-//W3C//DTD SVG 20010904//EN"
 "http://www.w3.org/TR/2001/REC-SVG-20010904/DTD/svg10.dtd">
<svg version="1.0" xmlns="http://www.w3.org/2000/svg"
 width="651.000000pt" height="640.000000pt" viewBox="0 0 651.000000 640.000000"
 preserveAspectRatio="xMidYMid meet">
<metadata>
Created by potrace 1.15, written by Peter Selinger 2001-2017
</metadata>
<g transform="translate(0.000000,640.000000) scale(0.100000,-0.100000)"
fill="#2765f5" stroke="none">
<path d="M1950 6370 c0 -22 -5 -30 -18 -30 -27 0 -102 -51 -141 -95 -68 -78
-66 -62 -66 -560 1 -446 1 -450 23 -500 28 -60 71 -107 132 -143 45 -27 46
-27 245 -27 199 0 200 0 246 27 57 34 106 88 132 147 18 42 21 73 24 316 6
339 -8 648 -30 690 -19 38 -108 122 -142 135 -15 6 -37 10 -51 10 -20 0 -24 5
-24 30 l0 30 -165 0 -165 0 0 -30z"/>
<path d="M4330 6370 c0 -22 -5 -30 -17 -30 -35 0 -123 -61 -158 -108 -55 -75
-57 -101 -53 -582 3 -426 3 -436 25 -476 36 -67 70 -101 135 -133 l61 -31 177
0 177 0 61 31 c61 30 101 71 138 139 18 33 19 63 19 500 0 518 2 499 -70 578
-40 45 -107 82 -148 82 -23 0 -27 4 -27 30 l0 30 -160 0 -160 0 0 -30z"/>
<path d="M970 5829 c-343 -39 -681 -303 -804 -628 -66 -172 -60 7 -64 -2069
-3 -1997 1 -2285 37 -2384 105 -299 321 -525 610 -640 l106 -42 193 -4 192 -4
0 -29 0 -29 2010 0 2010 0 0 29 0 29 193 4 c207 5 220 8 369 76 241 109 443
338 539 610 36 99 40 387 37 2384 l-4 1883 -22 80 c-52 183 -179 383 -320 500
-182 153 -373 225 -633 241 l-116 7 -10 -379 c-9 -352 -12 -383 -32 -441 -70
-194 -262 -363 -446 -393 -78 -13 -552 -13 -629 0 -182 30 -362 183 -438 375
l-32 80 -9 378 -10 377 -387 0 -388 0 -5 -362 c-5 -399 -8 -425 -70 -542 -42
-81 -173 -211 -254 -254 -101 -53 -165 -62 -458 -62 -300 0 -362 8 -465 56
-137 64 -273 229 -316 380 -14 49 -18 123 -21 422 l-5 362 -142 -1 c-77 -1
-175 -5 -216 -10z m4822 -1619 c59 -21 130 -81 165 -140 l33 -54 0 -1589 0
-1588 -35 -72 c-65 -132 -147 -213 -280 -276 l-65 -31 -2360 0 -2360 0 -65 31
c-133 62 -215 144 -279 275 l-35 71 -1 1581 -2 1580 22 43 c35 69 65 104 122
140 l52 34 226 6 c124 3 1260 5 2525 4 1871 -1 2307 -4 2337 -15z"/>
<path d="M1304 3631 c-82 -14 -159 -76 -207 -165 -21 -40 -22 -51 -21 -316 1
-185 5 -289 13 -319 8 -29 30 -63 64 -98 86 -92 69 -88 422 -88 270 0 314 2
340 17 43 23 133 121 142 154 4 16 8 166 8 334 0 300 0 306 -23 342 -12 20
-41 53 -63 73 -73 65 -85 68 -374 71 -143 1 -278 0 -301 -5z"/>
<path d="M2970 3631 c-87 -14 -167 -78 -211 -169 -23 -46 -23 -53 -21 -307 2
-326 7 -350 79 -427 31 -32 71 -63 92 -70 26 -10 117 -13 336 -13 l300 0 47
27 c59 35 115 100 130 152 18 61 17 578 -1 630 -18 53 -95 134 -151 159 -41
18 -69 21 -300 23 -140 1 -275 -1 -300 -5z"/>
<path d="M4628 3630 c-59 -10 -104 -37 -155 -93 -72 -78 -75 -96 -71 -413 3
-242 6 -285 22 -321 24 -56 115 -140 164 -150 48 -10 576 -10 624 0 53 11 142
95 165 155 16 41 18 80 18 322 0 151 -4 293 -8 314 -11 51 -114 161 -166 177
-45 13 -529 21 -593 9z"/>
<path d="M1328 1971 c-122 -14 -223 -107 -249 -229 -15 -73 -6 -505 12 -576
17 -68 106 -158 172 -174 62 -16 562 -16 624 0 65 16 155 106 171 171 16 62
16 562 0 624 -17 68 -107 156 -174 171 -61 14 -465 23 -556 13z"/>
<path d="M3000 1970 c-84 -8 -110 -20 -169 -75 -93 -87 -107 -169 -93 -520 7
-157 13 -218 25 -240 21 -42 119 -133 153 -142 16 -4 166 -8 334 -8 346 0 334
-3 417 88 64 70 67 87 67 402 0 315 -3 332 -67 402 -74 80 -89 85 -276 94
-189 9 -297 9 -391 -1z"/>
<path d="M4660 1971 c-78 -8 -133 -35 -183 -90 -73 -81 -72 -74 -72 -391 0
-157 4 -302 8 -322 5 -24 26 -57 59 -93 85 -94 68 -90 428 -90 359 0 340 -4
427 88 35 37 54 67 60 93 10 51 10 567 0 618 -9 43 -90 137 -142 164 -47 24
-419 39 -585 23z"/>
</g>
</svg>
