<?xml version="1.0" encoding="UTF-8"?>
<svg xmlns="http://www.w3.org/2000/svg" xmlns:xlink="http://www.w3.org/1999/xlink" width="20pt" height="20pt" viewBox="0 0 20 20" version="1.1">
<g id="surface1">
<path style=" stroke:none;fill-rule:nonzero;fill:rgb(33.333333%,51.764706%,96.470588%);fill-opacity:1;" d="M 9.945312 0.0507812 C 9.941406 0.0976562 9.933594 0.101562 9.875 0.113281 C 9.835938 0.121094 9.773438 0.136719 9.734375 0.15625 C 9.695312 0.175781 9.65625 0.1875 9.648438 0.1875 C 9.625 0.1875 9.496094 0.269531 9.433594 0.324219 C 9.398438 0.351562 9.355469 0.382812 9.328125 0.398438 C 9.195312 0.464844 0.496094 9.164062 0.429688 9.296875 C 0.414062 9.320312 0.382812 9.367188 0.355469 9.398438 C 0.300781 9.464844 0.21875 9.59375 0.21875 9.613281 C 0.21875 9.621094 0.203125 9.667969 0.179688 9.722656 C 0.160156 9.773438 0.140625 9.835938 0.140625 9.859375 C 0.140625 9.882812 0.136719 9.90625 0.125 9.910156 C 0.105469 9.921875 0.105469 10.039062 0.125 10.050781 C 0.136719 10.058594 0.140625 10.082031 0.140625 10.101562 C 0.140625 10.140625 0.195312 10.289062 0.25 10.417969 C 0.269531 10.453125 0.308594 10.511719 0.339844 10.550781 C 0.375 10.585938 0.414062 10.644531 0.425781 10.679688 C 0.445312 10.730469 0.460938 10.753906 0.527344 10.785156 C 0.570312 10.804688 0.636719 10.84375 0.671875 10.871094 C 0.707031 10.898438 0.761719 10.929688 0.789062 10.941406 C 0.820312 10.953125 0.875 10.972656 0.914062 10.988281 C 1.0625 11.046875 1.269531 11.066406 1.957031 11.078125 L 2.613281 11.085938 L 2.613281 12.71875 C 2.617188 15.984375 2.636719 18.867188 2.65625 18.90625 C 2.664062 18.929688 2.695312 19.007812 2.71875 19.089844 C 2.742188 19.164062 2.773438 19.25 2.792969 19.277344 C 2.824219 19.324219 2.953125 19.476562 2.996094 19.515625 C 3.085938 19.605469 3.3125 19.773438 3.34375 19.773438 C 3.351562 19.773438 3.402344 19.789062 3.453125 19.8125 C 3.636719 19.882812 3.734375 19.886719 5.566406 19.878906 C 6.511719 19.878906 7.292969 19.871094 7.300781 19.863281 C 7.304688 19.855469 7.316406 18.398438 7.320312 16.628906 C 7.328125 13.34375 7.328125 13.394531 7.382812 13.246094 C 7.511719 12.90625 7.523438 12.882812 7.695312 12.714844 C 7.851562 12.558594 7.90625 12.515625 8.0625 12.460938 C 8.144531 12.425781 8.222656 12.394531 8.242188 12.390625 C 8.382812 12.335938 8.382812 12.335938 10.011719 12.335938 C 11.640625 12.335938 11.640625 12.335938 11.785156 12.390625 C 11.800781 12.394531 11.882812 12.425781 11.960938 12.460938 C 12.121094 12.519531 12.171875 12.554688 12.316406 12.699219 C 12.5 12.882812 12.515625 12.90625 12.640625 13.246094 C 12.695312 13.394531 12.695312 13.34375 12.703125 16.628906 C 12.707031 18.398438 12.71875 19.855469 12.726562 19.863281 C 12.734375 19.871094 13.511719 19.878906 14.457031 19.878906 C 16.292969 19.886719 16.390625 19.882812 16.570312 19.8125 C 16.625 19.789062 16.671875 19.773438 16.679688 19.773438 C 16.699219 19.773438 16.863281 19.664062 16.941406 19.597656 C 17.140625 19.425781 17.253906 19.265625 17.328125 19.035156 L 17.386719 18.867188 L 17.394531 16.59375 C 17.402344 15.339844 17.410156 13.589844 17.410156 12.703125 L 17.410156 11.085938 L 18.070312 11.078125 C 18.753906 11.066406 18.964844 11.046875 19.113281 10.988281 C 19.152344 10.972656 19.207031 10.953125 19.234375 10.941406 C 19.261719 10.929688 19.316406 10.898438 19.351562 10.871094 C 19.390625 10.84375 19.457031 10.804688 19.496094 10.785156 C 19.5625 10.753906 19.578125 10.734375 19.597656 10.683594 C 19.609375 10.648438 19.644531 10.589844 19.679688 10.550781 C 19.714844 10.515625 19.757812 10.453125 19.773438 10.417969 C 19.835938 10.277344 19.871094 10.179688 19.878906 10.117188 C 19.890625 10.058594 19.894531 10.050781 19.941406 10.046875 C 19.992188 10.042969 19.992188 10.039062 19.992188 9.980469 C 19.992188 9.925781 19.992188 9.917969 19.941406 9.914062 C 19.894531 9.910156 19.890625 9.902344 19.878906 9.84375 C 19.875 9.804688 19.855469 9.742188 19.835938 9.703125 C 19.820312 9.664062 19.804688 9.625 19.804688 9.617188 C 19.804688 9.59375 19.726562 9.464844 19.667969 9.398438 C 19.644531 9.367188 19.609375 9.320312 19.59375 9.296875 C 19.527344 9.164062 10.828125 0.464844 10.699219 0.398438 C 10.671875 0.382812 10.625 0.351562 10.59375 0.324219 C 10.527344 0.269531 10.402344 0.1875 10.378906 0.1875 C 10.371094 0.1875 10.332031 0.175781 10.289062 0.15625 C 10.25 0.136719 10.1875 0.121094 10.148438 0.113281 C 10.089844 0.101562 10.082031 0.0976562 10.078125 0.0507812 C 10.074219 0.00390625 10.070312 0 10.011719 0 C 9.957031 0 9.953125 0.00390625 9.945312 0.0507812 Z M 9.945312 0.0507812 "/>
</g>
</svg>
