<?xml version="1.0" standalone="no"?>
<!DOCTYPE svg PUBLIC "-//W3C//DTD SVG 20010904//EN"
 "http://www.w3.org/TR/2001/REC-SVG-20010904/DTD/svg10.dtd">
<svg version="1.0" xmlns="http://www.w3.org/2000/svg"
 width="1270.000000pt" height="1270.000000pt" viewBox="0 0 1270.000000 1270.000000"
 preserveAspectRatio="xMidYMid meet">
<metadata>
Created by potrace 1.15, written by Peter Selinger 2001-2017
</metadata>
<g transform="translate(0.000000,1270.000000) scale(0.100000,-0.100000)"
fill="#5584F6" stroke="none">
<path d="M6318 12668 c-3 -30 -7 -33 -45 -40 -24 -4 -64 -16 -89 -27 -26 -12
-51 -21 -56 -21 -15 0 -95 -50 -137 -86 -20 -17 -49 -38 -66 -47 -84 -43
-5609 -5568 -5652 -5652 -9 -16 -30 -46 -47 -66 -34 -41 -86 -122 -86 -135 0
-5 -11 -36 -25 -69 -13 -33 -25 -72 -25 -87 0 -15 -4 -30 -10 -33 -13 -8 -13
-82 0 -90 6 -3 10 -18 10 -31 0 -25 33 -119 70 -201 11 -23 36 -61 57 -84 21
-23 45 -60 53 -83 12 -33 24 -46 65 -66 28 -14 69 -39 92 -56 23 -17 57 -37
75 -44 18 -7 53 -20 78 -30 94 -38 227 -49 663 -56 l417 -6 1 -1037 c2 -2075
14 -3905 26 -3931 6 -14 24 -65 39 -115 15 -49 36 -103 48 -120 20 -29 103
-127 128 -152 57 -57 203 -163 223 -163 5 0 36 -11 69 -24 115 -46 177 -48
1343 -44 600 2 1095 7 1100 11 4 5 11 930 14 2055 5 2087 5 2055 39 2147 82
218 90 232 197 339 100 99 136 125 234 162 52 20 103 40 114 44 91 35 90 35
1125 35 1035 0 1034 0 1125 -35 11 -4 62 -24 113 -44 102 -39 133 -60 226
-153 116 -117 125 -132 206 -348 34 -92 33 -62 39 -2147 3 -1125 10 -2050 14
-2055 5 -4 500 -9 1100 -11 1166 -4 1228 -2 1343 44 33 13 64 24 69 24 13 0
116 70 165 112 128 109 199 211 248 358 l35 105 7 1445 c5 795 8 1907 9 2471
l1 1027 418 6 c435 7 568 18 662 56 25 10 60 23 78 30 18 7 52 27 75 44 23 17
65 42 92 56 41 20 52 32 63 64 7 22 30 59 52 83 22 23 49 62 59 85 40 89 63
151 69 191 7 38 10 42 40 45 30 3 32 6 32 42 0 36 -2 39 -32 42 -30 3 -33 7
-40 45 -4 24 -16 64 -27 89 -12 26 -21 51 -21 56 0 15 -50 95 -86 137 -17 20
-38 50 -47 66 -43 84 -5568 5609 -5652 5652 -16 9 -46 30 -66 47 -42 36 -122
86 -137 86 -5 0 -30 9 -56 21 -25 11 -65 23 -89 27 -38 7 -42 10 -45 40 -3 30
-6 32 -42 32 -36 0 -39 -2 -42 -32z"/>
</g>
</svg>
