<?xml version="1.0" encoding="UTF-8"?>
<svg xmlns="http://www.w3.org/2000/svg" xmlns:xlink="http://www.w3.org/1999/xlink" width="20pt" height="20pt" viewBox="0 0 20 20" version="1.1">
<g id="surface1">
<path style=" stroke:none;fill-rule:nonzero;fill:rgb(33.333333%,51.764706%,96.470588%);fill-opacity:1;" d="M 16.632812 0.859375 C 15.511719 1.140625 9.84375 2.855469 8.117188 3.421875 C 6.996094 3.796875 6.558594 3.996094 6.253906 4.269531 L 5.859375 4.625 L 5.859375 13.148438 L 5 13.199219 C 3.921875 13.261719 3.273438 13.566406 2.582031 14.332031 C 2.082031 14.886719 1.671875 15.785156 1.671875 16.316406 C 1.671875 17.238281 2.5625 18.523438 3.566406 19.046875 C 4.203125 19.382812 5.304688 19.394531 5.921875 19.070312 C 6.476562 18.777344 7.257812 17.980469 7.5625 17.425781 C 7.792969 16.996094 7.792969 16.957031 7.824219 11.222656 C 7.84375 5.867188 7.867188 5.449219 8.035156 5.398438 C 8.128906 5.367188 8.921875 5.136719 9.78125 4.875 C 13.785156 3.683594 15.042969 3.347656 15.605469 3.347656 L 16.183594 3.347656 L 16.246094 4.046875 C 16.285156 4.445312 16.316406 6.183594 16.316406 7.90625 L 16.316406 11.054688 L 15.492188 11.109375 C 14.027344 11.191406 12.835938 12.039062 12.34375 13.367188 C 11.964844 14.371094 12.226562 15.355469 13.128906 16.253906 C 14.132812 17.257812 15.40625 17.5 16.507812 16.894531 C 17.195312 16.515625 17.71875 15.941406 18.085938 15.179688 L 18.359375 14.59375 L 18.359375 8.160156 C 18.359375 1.066406 18.367188 1.128906 17.710938 0.804688 C 17.449219 0.679688 17.320312 0.679688 16.632812 0.859375 Z M 16.632812 0.859375 "/>
</g>
</svg>
