<?xml version="1.0" encoding="UTF-8"?>
<svg xmlns="http://www.w3.org/2000/svg" xmlns:xlink="http://www.w3.org/1999/xlink" width="20pt" height="20pt" viewBox="0 0 20 20" version="1.1">
<g id="surface1">
<path style=" stroke:none;fill-rule:nonzero;fill:rgb(33.333333%,51.764706%,96.470588%);fill-opacity:1;" d="M 9.605469 0.183594 C 9.621094 0.226562 9.601562 0.242188 9.535156 0.242188 C 9.464844 0.242188 9.460938 0.234375 9.507812 0.203125 C 9.558594 0.167969 9.550781 0.160156 9.476562 0.160156 C 9.421875 0.160156 9.394531 0.179688 9.40625 0.203125 C 9.417969 0.222656 9.410156 0.242188 9.390625 0.242188 C 9.363281 0.242188 9.34375 0.222656 9.34375 0.203125 C 9.34375 0.179688 9.316406 0.160156 9.277344 0.160156 C 9.238281 0.160156 9.222656 0.1875 9.238281 0.222656 C 9.253906 0.269531 9.226562 0.28125 9.105469 0.277344 C 8.972656 0.273438 8.96875 0.269531 9.058594 0.242188 C 9.128906 0.222656 9.078125 0.214844 8.90625 0.21875 C 8.738281 0.21875 8.648438 0.238281 8.648438 0.265625 C 8.648438 0.296875 8.617188 0.328125 8.582031 0.339844 C 8.523438 0.359375 8.519531 0.355469 8.566406 0.304688 C 8.605469 0.253906 8.605469 0.242188 8.550781 0.242188 C 8.511719 0.242188 8.484375 0.269531 8.484375 0.304688 C 8.484375 0.335938 8.449219 0.363281 8.414062 0.363281 C 8.351562 0.363281 8.351562 0.355469 8.398438 0.328125 C 8.4375 0.304688 8.40625 0.292969 8.304688 0.296875 C 8.195312 0.300781 8.160156 0.316406 8.171875 0.351562 C 8.183594 0.378906 8.167969 0.40625 8.132812 0.40625 C 8.097656 0.40625 8.082031 0.382812 8.09375 0.363281 C 8.105469 0.339844 8.097656 0.324219 8.078125 0.324219 C 8.054688 0.324219 8.03125 0.339844 8.03125 0.355469 C 8.03125 0.375 7.976562 0.386719 7.910156 0.382812 C 7.828125 0.378906 7.789062 0.390625 7.804688 0.425781 C 7.8125 0.449219 7.796875 0.472656 7.761719 0.472656 C 7.734375 0.472656 7.71875 0.457031 7.726562 0.441406 C 7.753906 0.394531 7.570312 0.449219 7.5 0.503906 C 7.46875 0.535156 7.410156 0.570312 7.378906 0.585938 C 7.328125 0.613281 7.324219 0.609375 7.363281 0.5625 C 7.410156 0.507812 7.398438 0.5 7.296875 0.519531 C 7.21875 0.53125 7.171875 0.558594 7.167969 0.601562 C 7.167969 0.640625 7.15625 0.648438 7.148438 0.617188 C 7.136719 0.589844 7.097656 0.582031 7.066406 0.59375 C 7.035156 0.605469 7.019531 0.636719 7.035156 0.660156 C 7.050781 0.683594 7.039062 0.6875 7.011719 0.671875 C 6.988281 0.65625 6.910156 0.65625 6.835938 0.667969 C 6.746094 0.6875 6.726562 0.703125 6.765625 0.730469 C 6.808594 0.757812 6.796875 0.769531 6.722656 0.773438 C 6.664062 0.777344 6.59375 0.777344 6.566406 0.773438 C 6.535156 0.769531 6.414062 0.808594 6.289062 0.867188 C 6.171875 0.925781 6.050781 0.972656 6.027344 0.972656 C 6.003906 0.972656 5.984375 1.003906 5.984375 1.039062 C 5.984375 1.089844 5.972656 1.097656 5.949219 1.066406 C 5.917969 1.011719 5.5625 1.160156 5.59375 1.214844 C 5.605469 1.230469 5.585938 1.257812 5.550781 1.269531 C 5.511719 1.285156 5.496094 1.277344 5.515625 1.25 C 5.53125 1.222656 5.515625 1.222656 5.453125 1.253906 C 5.40625 1.277344 5.378906 1.320312 5.394531 1.34375 C 5.410156 1.367188 5.398438 1.378906 5.363281 1.367188 C 5.277344 1.335938 4.992188 1.488281 5.023438 1.546875 C 5.046875 1.574219 5.03125 1.582031 4.992188 1.566406 C 4.925781 1.542969 4.636719 1.710938 4.578125 1.808594 C 4.558594 1.835938 4.527344 1.851562 4.503906 1.839844 C 4.484375 1.824219 4.46875 1.84375 4.46875 1.882812 C 4.46875 1.925781 4.445312 1.941406 4.410156 1.929688 C 4.371094 1.914062 4.289062 1.957031 4.222656 2.023438 C 4.152344 2.085938 4.089844 2.136719 4.085938 2.136719 C 4.054688 2.113281 3.859375 2.28125 3.882812 2.316406 C 3.894531 2.34375 3.886719 2.347656 3.859375 2.332031 C 3.832031 2.3125 3.8125 2.320312 3.8125 2.347656 C 3.8125 2.371094 3.796875 2.382812 3.773438 2.371094 C 3.753906 2.355469 3.6875 2.402344 3.632812 2.472656 C 3.574219 2.539062 3.523438 2.582031 3.523438 2.566406 C 3.523438 2.546875 3.460938 2.59375 3.382812 2.667969 C 3.304688 2.742188 3.253906 2.824219 3.265625 2.84375 C 3.277344 2.867188 3.269531 2.871094 3.25 2.859375 C 3.226562 2.84375 3.191406 2.859375 3.179688 2.894531 C 3.167969 2.929688 3.140625 2.949219 3.121094 2.9375 C 3.078125 2.910156 2.773438 3.210938 2.8125 3.25 C 2.828125 3.265625 2.808594 3.285156 2.769531 3.300781 C 2.734375 3.3125 2.71875 3.34375 2.734375 3.371094 C 2.746094 3.390625 2.738281 3.398438 2.714844 3.382812 C 2.652344 3.34375 2.164062 3.886719 2.191406 3.964844 C 2.210938 3.996094 2.203125 4.011719 2.191406 3.996094 C 2.15625 3.964844 2.007812 4.089844 2.007812 4.152344 C 2.007812 4.179688 1.980469 4.210938 1.941406 4.222656 C 1.90625 4.238281 1.886719 4.277344 1.902344 4.308594 C 1.914062 4.34375 1.902344 4.367188 1.867188 4.367188 C 1.800781 4.367188 1.585938 4.679688 1.617188 4.734375 C 1.632812 4.757812 1.613281 4.773438 1.582031 4.773438 C 1.546875 4.773438 1.515625 4.789062 1.515625 4.8125 C 1.515625 4.835938 1.515625 4.863281 1.515625 4.875 C 1.515625 4.886719 1.480469 4.929688 1.433594 4.976562 C 1.386719 5.023438 1.359375 5.078125 1.371094 5.097656 C 1.390625 5.121094 1.378906 5.136719 1.351562 5.136719 C 1.328125 5.136719 1.285156 5.1875 1.257812 5.246094 C 1.234375 5.3125 1.1875 5.382812 1.160156 5.414062 C 1.132812 5.441406 1.121094 5.492188 1.136719 5.53125 C 1.152344 5.574219 1.148438 5.585938 1.113281 5.566406 C 1.070312 5.542969 1.046875 5.585938 1.0625 5.671875 C 1.0625 5.691406 1.046875 5.703125 1.019531 5.703125 C 1 5.703125 0.992188 5.722656 1.003906 5.75 C 1.019531 5.773438 0.996094 5.824219 0.945312 5.871094 C 0.898438 5.914062 0.867188 5.96875 0.882812 5.988281 C 0.894531 6.003906 0.878906 6.03125 0.851562 6.039062 C 0.8125 6.054688 0.8125 6.070312 0.855469 6.101562 C 0.898438 6.132812 0.894531 6.148438 0.832031 6.195312 C 0.714844 6.277344 0.679688 6.355469 0.742188 6.394531 C 0.785156 6.425781 0.78125 6.433594 0.726562 6.433594 C 0.683594 6.433594 0.65625 6.457031 0.660156 6.480469 C 0.675781 6.605469 0.652344 6.679688 0.605469 6.652344 C 0.578125 6.628906 0.570312 6.640625 0.585938 6.6875 C 0.597656 6.722656 0.589844 6.757812 0.5625 6.773438 C 0.527344 6.785156 0.53125 6.792969 0.570312 6.792969 C 0.613281 6.796875 0.609375 6.816406 0.550781 6.886719 C 0.496094 6.941406 0.492188 6.960938 0.53125 6.941406 C 0.566406 6.925781 0.558594 6.941406 0.515625 6.972656 C 0.46875 7.011719 0.460938 7.039062 0.488281 7.039062 C 0.546875 7.039062 0.507812 7.203125 0.4375 7.246094 C 0.417969 7.261719 0.410156 7.289062 0.425781 7.3125 C 0.4375 7.339844 0.425781 7.382812 0.394531 7.414062 C 0.359375 7.449219 0.34375 7.484375 0.355469 7.5 C 0.371094 7.511719 0.347656 7.546875 0.308594 7.582031 C 0.25 7.621094 0.238281 7.664062 0.257812 7.757812 C 0.273438 7.839844 0.265625 7.886719 0.234375 7.90625 C 0.195312 7.917969 0.195312 7.925781 0.238281 7.925781 C 0.261719 7.929688 0.285156 7.949219 0.285156 7.972656 C 0.285156 7.996094 0.257812 8.007812 0.226562 7.992188 C 0.179688 7.976562 0.164062 8 0.164062 8.082031 C 0.164062 8.167969 0.171875 8.179688 0.203125 8.132812 C 0.257812 8.050781 0.253906 8.105469 0.199219 8.296875 C 0.171875 8.382812 0.136719 8.441406 0.117188 8.429688 C 0.0976562 8.417969 0.0820312 8.476562 0.0820312 8.550781 C 0.0820312 8.632812 0.0976562 8.699219 0.113281 8.699219 C 0.136719 8.699219 0.140625 8.773438 0.121094 8.871094 C 0.109375 8.964844 0.0976562 9.136719 0.101562 9.253906 C 0.105469 9.367188 0.0898438 9.464844 0.0703125 9.464844 C 0.0546875 9.464844 0.0507812 9.425781 0.0625 9.382812 C 0.0820312 9.320312 0.078125 9.304688 0.046875 9.320312 C 0.015625 9.339844 0 9.554688 0 9.953125 C 0 10.472656 0.0078125 10.554688 0.0625 10.535156 C 0.136719 10.503906 0.144531 10.5625 0.0742188 10.636719 C 0.0351562 10.675781 0.0351562 10.683594 0.0703125 10.664062 C 0.09375 10.652344 0.128906 10.65625 0.144531 10.679688 C 0.15625 10.699219 0.152344 10.71875 0.136719 10.71875 C 0.0820312 10.71875 0.0976562 11.375 0.15625 11.472656 C 0.183594 11.527344 0.1875 11.570312 0.160156 11.597656 C 0.109375 11.644531 0.15625 11.945312 0.203125 11.914062 C 0.222656 11.902344 0.246094 11.929688 0.257812 11.972656 C 0.269531 12.019531 0.261719 12.046875 0.246094 12.035156 C 0.226562 12.023438 0.21875 12.046875 0.226562 12.082031 C 0.234375 12.125 0.242188 12.1875 0.242188 12.230469 C 0.246094 12.269531 0.261719 12.292969 0.28125 12.28125 C 0.304688 12.269531 0.328125 12.285156 0.34375 12.316406 C 0.355469 12.351562 0.347656 12.386719 0.332031 12.398438 C 0.28125 12.425781 0.347656 12.707031 0.414062 12.742188 C 0.4375 12.757812 0.449219 12.792969 0.433594 12.816406 C 0.421875 12.839844 0.429688 12.863281 0.449219 12.871094 C 0.476562 12.878906 0.5 12.933594 0.507812 12.992188 C 0.511719 13.050781 0.554688 13.148438 0.589844 13.207031 C 0.632812 13.269531 0.644531 13.304688 0.617188 13.292969 C 0.59375 13.277344 0.574219 13.285156 0.574219 13.304688 C 0.574219 13.328125 0.59375 13.347656 0.617188 13.347656 C 0.644531 13.347656 0.65625 13.375 0.644531 13.398438 C 0.636719 13.425781 0.648438 13.488281 0.667969 13.53125 C 0.691406 13.574219 0.71875 13.636719 0.722656 13.667969 C 0.730469 13.703125 0.761719 13.746094 0.804688 13.765625 C 0.851562 13.792969 0.855469 13.8125 0.820312 13.835938 C 0.785156 13.855469 0.789062 13.878906 0.839844 13.929688 C 0.871094 13.964844 0.902344 14.003906 0.902344 14.015625 C 0.890625 14.070312 1.164062 14.585938 1.21875 14.617188 C 1.277344 14.652344 1.363281 14.824219 1.371094 14.917969 C 1.371094 14.949219 1.402344 14.988281 1.433594 15.007812 C 1.46875 15.027344 1.480469 15.046875 1.460938 15.046875 C 1.433594 15.046875 1.449219 15.074219 1.488281 15.097656 C 1.523438 15.125 1.558594 15.175781 1.566406 15.203125 C 1.574219 15.234375 1.628906 15.3125 1.6875 15.378906 C 1.753906 15.445312 1.796875 15.519531 1.78125 15.535156 C 1.769531 15.550781 1.789062 15.578125 1.824219 15.589844 C 1.855469 15.601562 1.882812 15.632812 1.878906 15.652344 C 1.867188 15.671875 1.902344 15.71875 1.945312 15.757812 C 1.992188 15.792969 2 15.8125 1.96875 15.796875 C 1.933594 15.78125 1.972656 15.828125 2.050781 15.898438 C 2.128906 15.96875 2.164062 16.015625 2.132812 16 C 2.097656 15.984375 2.105469 16.003906 2.152344 16.039062 C 2.195312 16.074219 2.234375 16.121094 2.234375 16.140625 C 2.234375 16.160156 2.328125 16.261719 2.4375 16.367188 C 2.554688 16.46875 2.605469 16.527344 2.5625 16.5 C 2.496094 16.460938 2.5 16.472656 2.578125 16.558594 C 2.636719 16.617188 2.703125 16.667969 2.734375 16.667969 C 2.765625 16.667969 2.78125 16.683594 2.765625 16.703125 C 2.753906 16.722656 2.78125 16.75 2.828125 16.769531 C 2.871094 16.785156 2.902344 16.808594 2.890625 16.824219 C 2.863281 16.867188 3.140625 17.113281 3.179688 17.078125 C 3.195312 17.0625 3.195312 17.070312 3.183594 17.09375 C 3.171875 17.121094 3.226562 17.199219 3.3125 17.277344 C 3.417969 17.375 3.4375 17.382812 3.382812 17.308594 C 3.335938 17.253906 3.359375 17.273438 3.433594 17.351562 C 3.511719 17.429688 3.589844 17.492188 3.609375 17.488281 C 3.632812 17.480469 3.644531 17.488281 3.636719 17.507812 C 3.632812 17.523438 3.636719 17.535156 3.648438 17.539062 C 3.722656 17.550781 3.851562 17.648438 3.832031 17.679688 C 3.820312 17.699219 3.832031 17.726562 3.855469 17.742188 C 3.890625 17.757812 3.894531 17.753906 3.878906 17.726562 C 3.859375 17.699219 3.867188 17.679688 3.890625 17.679688 C 3.914062 17.679688 3.933594 17.703125 3.933594 17.734375 C 3.933594 17.761719 3.96875 17.816406 4.003906 17.84375 C 4.050781 17.882812 4.0625 17.882812 4.039062 17.851562 C 4 17.777344 4.03125 17.789062 4.140625 17.878906 C 4.191406 17.925781 4.21875 17.960938 4.195312 17.960938 C 4.175781 17.960938 4.191406 17.980469 4.230469 18.003906 C 4.269531 18.027344 4.3125 18.039062 4.320312 18.035156 C 4.332031 18.027344 4.367188 18.058594 4.402344 18.101562 C 4.4375 18.148438 4.46875 18.171875 4.46875 18.15625 C 4.46875 18.140625 4.511719 18.171875 4.570312 18.222656 C 4.621094 18.28125 4.710938 18.324219 4.753906 18.324219 C 4.804688 18.324219 4.828125 18.34375 4.816406 18.367188 C 4.804688 18.390625 4.828125 18.40625 4.871094 18.40625 C 4.921875 18.40625 4.960938 18.425781 4.960938 18.449219 C 4.960938 18.472656 5.019531 18.515625 5.097656 18.546875 C 5.175781 18.582031 5.253906 18.628906 5.265625 18.652344 C 5.28125 18.671875 5.324219 18.683594 5.355469 18.671875 C 5.394531 18.65625 5.402344 18.664062 5.386719 18.699219 C 5.363281 18.730469 5.378906 18.734375 5.425781 18.71875 C 5.464844 18.703125 5.488281 18.707031 5.476562 18.722656 C 5.445312 18.769531 5.734375 18.898438 5.785156 18.867188 C 5.8125 18.851562 5.820312 18.859375 5.804688 18.882812 C 5.777344 18.925781 5.871094 18.972656 6.019531 18.996094 C 6.054688 19.003906 6.089844 19.023438 6.101562 19.046875 C 6.140625 19.097656 6.464844 19.214844 6.492188 19.1875 C 6.503906 19.171875 6.515625 19.179688 6.515625 19.203125 C 6.515625 19.226562 6.554688 19.253906 6.597656 19.269531 C 6.644531 19.28125 6.679688 19.273438 6.679688 19.253906 C 6.679688 19.234375 6.714844 19.226562 6.753906 19.234375 C 6.789062 19.242188 6.84375 19.25 6.863281 19.25 C 6.890625 19.253906 6.882812 19.273438 6.851562 19.292969 C 6.808594 19.320312 6.808594 19.328125 6.859375 19.347656 C 6.898438 19.363281 6.925781 19.359375 6.925781 19.339844 C 6.925781 19.324219 6.953125 19.308594 6.988281 19.308594 C 7.019531 19.308594 7.035156 19.324219 7.023438 19.339844 C 7.015625 19.355469 7.046875 19.394531 7.09375 19.417969 C 7.15625 19.449219 7.171875 19.453125 7.15625 19.421875 C 7.113281 19.355469 7.167969 19.367188 7.242188 19.441406 C 7.285156 19.484375 7.320312 19.492188 7.347656 19.460938 C 7.40625 19.40625 7.460938 19.40625 7.460938 19.460938 C 7.460938 19.480469 7.433594 19.492188 7.410156 19.472656 C 7.378906 19.457031 7.367188 19.460938 7.390625 19.480469 C 7.410156 19.503906 7.441406 19.523438 7.464844 19.523438 C 7.484375 19.527344 7.503906 19.53125 7.511719 19.539062 C 7.546875 19.5625 7.660156 19.566406 7.644531 19.539062 C 7.613281 19.496094 7.734375 19.511719 7.773438 19.558594 C 7.789062 19.574219 7.78125 19.578125 7.75 19.558594 C 7.714844 19.539062 7.699219 19.542969 7.722656 19.570312 C 7.742188 19.609375 7.769531 19.605469 7.832031 19.566406 C 7.902344 19.527344 7.921875 19.53125 7.960938 19.59375 C 7.992188 19.65625 8.007812 19.660156 8.035156 19.617188 C 8.066406 19.570312 8.074219 19.574219 8.074219 19.628906 C 8.074219 19.667969 8.09375 19.699219 8.113281 19.699219 C 8.140625 19.699219 8.15625 19.683594 8.15625 19.667969 C 8.15625 19.621094 8.367188 19.617188 8.425781 19.664062 C 8.460938 19.6875 8.507812 19.699219 8.539062 19.6875 C 8.582031 19.671875 8.59375 19.683594 8.578125 19.726562 C 8.558594 19.785156 8.609375 19.800781 8.664062 19.75 C 8.714844 19.703125 8.785156 19.710938 8.835938 19.773438 C 8.867188 19.820312 8.886719 19.816406 8.929688 19.765625 C 8.964844 19.730469 9.007812 19.699219 9.03125 19.699219 C 9.0625 19.699219 9.058594 19.71875 9.023438 19.738281 C 8.984375 19.761719 8.992188 19.777344 9.058594 19.792969 C 9.121094 19.808594 9.140625 19.800781 9.121094 19.757812 C 9.105469 19.710938 9.117188 19.707031 9.171875 19.734375 C 9.210938 19.753906 9.300781 19.761719 9.363281 19.753906 C 9.5 19.734375 9.464844 19.800781 9.328125 19.832031 C 9.28125 19.835938 9.554688 19.84375 9.929688 19.84375 C 10.304688 19.84375 10.574219 19.832031 10.527344 19.8125 C 10.394531 19.765625 10.441406 19.75 10.695312 19.765625 C 10.882812 19.773438 10.9375 19.765625 10.917969 19.730469 C 10.898438 19.695312 10.90625 19.695312 10.945312 19.734375 C 11.011719 19.789062 11.121094 19.796875 11.085938 19.742188 C 11.070312 19.71875 11.101562 19.71875 11.171875 19.742188 C 11.25 19.773438 11.289062 19.773438 11.3125 19.742188 C 11.328125 19.71875 11.371094 19.695312 11.417969 19.695312 C 11.527344 19.699219 11.648438 19.699219 11.730469 19.695312 C 11.765625 19.695312 11.808594 19.667969 11.820312 19.636719 C 11.832031 19.605469 11.859375 19.578125 11.886719 19.578125 C 11.910156 19.578125 11.921875 19.59375 11.90625 19.617188 C 11.894531 19.640625 11.921875 19.648438 11.972656 19.640625 C 12.023438 19.628906 12.078125 19.597656 12.097656 19.570312 C 12.121094 19.53125 12.132812 19.535156 12.132812 19.578125 C 12.132812 19.625 12.144531 19.625 12.164062 19.589844 C 12.179688 19.566406 12.222656 19.546875 12.253906 19.546875 C 12.398438 19.554688 12.460938 19.535156 12.460938 19.476562 C 12.460938 19.445312 12.480469 19.417969 12.5 19.417969 C 12.523438 19.417969 12.539062 19.4375 12.539062 19.464844 C 12.539062 19.492188 12.574219 19.480469 12.617188 19.441406 C 12.679688 19.390625 12.699219 19.386719 12.71875 19.425781 C 12.734375 19.460938 12.742188 19.457031 12.742188 19.414062 C 12.746094 19.378906 12.78125 19.335938 12.832031 19.324219 C 12.898438 19.308594 12.90625 19.3125 12.863281 19.359375 C 12.800781 19.4375 12.886719 19.4375 12.96875 19.355469 C 13 19.324219 13.0625 19.308594 13.101562 19.320312 C 13.15625 19.335938 13.164062 19.332031 13.117188 19.304688 C 13.085938 19.28125 13.082031 19.253906 13.105469 19.238281 C 13.132812 19.226562 13.160156 19.230469 13.175781 19.25 C 13.203125 19.300781 13.441406 19.226562 13.441406 19.171875 C 13.441406 19.144531 13.46875 19.132812 13.496094 19.140625 C 13.570312 19.15625 13.851562 19.054688 13.851562 19.007812 C 13.851562 18.988281 13.882812 18.972656 13.914062 18.972656 C 13.945312 18.972656 14.015625 18.933594 14.0625 18.886719 C 14.117188 18.832031 14.160156 18.820312 14.175781 18.84375 C 14.199219 18.886719 14.316406 18.847656 14.308594 18.792969 C 14.296875 18.726562 14.308594 18.714844 14.339844 18.765625 C 14.367188 18.8125 14.394531 18.800781 14.464844 18.734375 C 14.507812 18.6875 14.570312 18.648438 14.59375 18.648438 C 14.679688 18.648438 15.203125 18.320312 15.203125 18.265625 C 15.203125 18.226562 15.230469 18.214844 15.265625 18.226562 C 15.300781 18.246094 15.328125 18.230469 15.328125 18.207031 C 15.328125 18.183594 15.355469 18.164062 15.390625 18.164062 C 15.421875 18.164062 15.449219 18.136719 15.449219 18.097656 C 15.449219 18.066406 15.46875 18.046875 15.488281 18.058594 C 15.546875 18.09375 15.769531 17.953125 15.796875 17.863281 C 15.808594 17.816406 15.835938 17.796875 15.882812 17.816406 C 15.917969 17.828125 15.933594 17.824219 15.921875 17.800781 C 15.910156 17.773438 15.917969 17.757812 15.941406 17.757812 C 15.96875 17.757812 16.027344 17.714844 16.082031 17.65625 C 16.136719 17.601562 16.191406 17.554688 16.214844 17.554688 C 16.234375 17.554688 16.277344 17.519531 16.3125 17.480469 C 16.339844 17.433594 16.386719 17.410156 16.40625 17.421875 C 16.429688 17.433594 16.433594 17.425781 16.421875 17.40625 C 16.394531 17.363281 16.488281 17.257812 16.523438 17.292969 C 16.558594 17.324219 17.296875 16.59375 17.296875 16.527344 C 17.296875 16.496094 17.316406 16.457031 17.34375 16.441406 C 17.371094 16.417969 17.378906 16.429688 17.355469 16.464844 C 17.332031 16.5 17.339844 16.507812 17.371094 16.488281 C 17.402344 16.46875 17.414062 16.429688 17.402344 16.394531 C 17.386719 16.351562 17.394531 16.34375 17.4375 16.359375 C 17.472656 16.371094 17.5 16.367188 17.5 16.347656 C 17.5 16.328125 17.550781 16.265625 17.605469 16.207031 C 17.667969 16.148438 17.699219 16.101562 17.683594 16.101562 C 17.667969 16.101562 17.699219 16.058594 17.761719 16.015625 C 17.824219 15.96875 17.863281 15.902344 17.851562 15.875 C 17.839844 15.839844 17.855469 15.816406 17.894531 15.816406 C 17.925781 15.816406 17.980469 15.761719 18.007812 15.695312 C 18.035156 15.628906 18.070312 15.585938 18.085938 15.597656 C 18.101562 15.613281 18.128906 15.570312 18.140625 15.5 C 18.15625 15.433594 18.183594 15.378906 18.214844 15.382812 C 18.238281 15.386719 18.253906 15.359375 18.253906 15.324219 C 18.25 15.28125 18.261719 15.257812 18.277344 15.269531 C 18.308594 15.289062 18.378906 15.175781 18.359375 15.136719 C 18.355469 15.128906 18.386719 15.101562 18.425781 15.074219 C 18.472656 15.039062 18.484375 15 18.464844 14.96875 C 18.441406 14.933594 18.445312 14.921875 18.476562 14.945312 C 18.523438 14.972656 18.617188 14.835938 18.578125 14.789062 C 18.566406 14.777344 18.574219 14.765625 18.597656 14.765625 C 18.628906 14.765625 18.648438 14.742188 18.648438 14.707031 C 18.648438 14.675781 18.675781 14.621094 18.714844 14.585938 C 18.746094 14.550781 18.761719 14.5 18.746094 14.472656 C 18.730469 14.445312 18.734375 14.433594 18.75 14.453125 C 18.789062 14.492188 18.9375 14.195312 18.90625 14.140625 C 18.890625 14.121094 18.902344 14.117188 18.929688 14.132812 C 18.960938 14.15625 18.984375 14.121094 19 14.042969 C 19.015625 13.972656 19.039062 13.914062 19.058594 13.914062 C 19.078125 13.914062 19.109375 13.867188 19.132812 13.800781 C 19.152344 13.742188 19.1875 13.65625 19.203125 13.613281 C 19.234375 13.539062 19.230469 13.535156 19.15625 13.589844 C 19.113281 13.621094 19.128906 13.597656 19.191406 13.535156 C 19.316406 13.414062 19.324219 13.386719 19.257812 13.320312 C 19.226562 13.289062 19.230469 13.269531 19.265625 13.25 C 19.300781 13.226562 19.308594 13.230469 19.285156 13.261719 C 19.269531 13.289062 19.277344 13.308594 19.304688 13.308594 C 19.328125 13.308594 19.34375 13.277344 19.335938 13.234375 C 19.332031 13.199219 19.359375 13.113281 19.40625 13.050781 C 19.453125 12.972656 19.484375 12.867188 19.480469 12.738281 C 19.480469 12.605469 19.492188 12.539062 19.527344 12.539062 C 19.59375 12.539062 19.71875 12.0625 19.65625 12.042969 C 19.632812 12.035156 19.644531 11.980469 19.6875 11.917969 C 19.730469 11.851562 19.742188 11.816406 19.71875 11.828125 C 19.648438 11.871094 19.664062 11.808594 19.742188 11.722656 C 19.804688 11.65625 19.804688 11.652344 19.730469 11.652344 C 19.660156 11.644531 19.65625 11.640625 19.722656 11.597656 C 19.769531 11.5625 19.777344 11.527344 19.746094 11.476562 C 19.71875 11.425781 19.730469 11.367188 19.789062 11.269531 C 19.886719 11.121094 19.902344 11.0625 19.832031 11.105469 C 19.777344 11.140625 19.804688 10.910156 19.871094 10.746094 C 19.898438 10.679688 19.914062 10.59375 19.90625 10.5625 C 19.894531 10.523438 19.886719 10.53125 19.882812 10.585938 C 19.882812 10.640625 19.863281 10.679688 19.84375 10.679688 C 19.828125 10.679688 19.820312 10.605469 19.828125 10.519531 C 19.835938 10.429688 19.859375 10.367188 19.882812 10.378906 C 19.902344 10.390625 19.917969 10.28125 19.917969 10.136719 C 19.917969 9.96875 19.902344 9.871094 19.867188 9.859375 C 19.828125 9.84375 19.828125 9.835938 19.867188 9.835938 C 19.898438 9.832031 19.917969 9.777344 19.917969 9.703125 C 19.917969 9.636719 19.902344 9.589844 19.878906 9.609375 C 19.855469 9.621094 19.835938 9.589844 19.832031 9.539062 C 19.832031 9.484375 19.824219 9.40625 19.820312 9.351562 C 19.808594 9.246094 19.859375 9.285156 19.890625 9.40625 C 19.90625 9.464844 19.910156 9.460938 19.914062 9.378906 C 19.914062 9.316406 19.890625 9.242188 19.855469 9.207031 C 19.78125 9.132812 19.777344 9.078125 19.847656 9.046875 C 19.890625 9.023438 19.890625 9.015625 19.847656 8.996094 C 19.820312 8.984375 19.796875 8.949219 19.796875 8.914062 C 19.796875 8.878906 19.816406 8.867188 19.835938 8.878906 C 19.859375 8.890625 19.878906 8.882812 19.878906 8.863281 C 19.878906 8.839844 19.859375 8.820312 19.84375 8.820312 C 19.824219 8.820312 19.816406 8.765625 19.828125 8.703125 C 19.835938 8.636719 19.824219 8.570312 19.796875 8.554688 C 19.757812 8.535156 19.753906 8.550781 19.773438 8.621094 C 19.789062 8.671875 19.789062 8.707031 19.773438 8.6875 C 19.726562 8.640625 19.71875 8.453125 19.761719 8.453125 C 19.785156 8.453125 19.773438 8.414062 19.730469 8.367188 C 19.652344 8.28125 19.652344 8.28125 19.734375 8.304688 C 19.804688 8.328125 19.808594 8.324219 19.75 8.285156 C 19.664062 8.210938 19.632812 8.105469 19.679688 8.058594 C 19.742188 7.996094 19.679688 7.765625 19.601562 7.765625 C 19.554688 7.765625 19.550781 7.753906 19.585938 7.710938 C 19.640625 7.648438 19.605469 7.445312 19.546875 7.445312 C 19.523438 7.445312 19.527344 7.492188 19.554688 7.550781 C 19.582031 7.625 19.582031 7.648438 19.554688 7.625 C 19.53125 7.601562 19.503906 7.519531 19.488281 7.445312 C 19.472656 7.34375 19.476562 7.316406 19.507812 7.363281 C 19.527344 7.398438 19.550781 7.402344 19.550781 7.375 C 19.550781 7.289062 19.5 7.199219 19.464844 7.226562 C 19.425781 7.246094 19.410156 7.164062 19.425781 7.023438 C 19.429688 6.976562 19.414062 6.960938 19.390625 6.972656 C 19.363281 6.992188 19.34375 6.976562 19.339844 6.949219 C 19.324219 6.710938 19.300781 6.613281 19.25 6.585938 C 19.210938 6.566406 19.195312 6.519531 19.214844 6.464844 C 19.230469 6.398438 19.222656 6.386719 19.179688 6.410156 C 19.148438 6.433594 19.136719 6.429688 19.15625 6.398438 C 19.167969 6.375 19.152344 6.28125 19.113281 6.1875 C 19.074219 6.089844 19.03125 6.039062 19.015625 6.066406 C 18.996094 6.101562 18.980469 6.097656 18.960938 6.046875 C 18.925781 5.953125 18.925781 5.9375 18.976562 5.96875 C 19.0625 6.019531 18.886719 5.671875 18.511719 5.042969 C 18.425781 4.894531 18.332031 4.773438 18.3125 4.773438 C 18.289062 4.773438 18.28125 4.757812 18.300781 4.738281 C 18.3125 4.71875 18.25 4.632812 18.167969 4.546875 C 18.082031 4.464844 18.035156 4.410156 18.066406 4.429688 C 18.15625 4.476562 18.066406 4.335938 17.894531 4.152344 C 17.8125 4.066406 17.746094 3.984375 17.746094 3.976562 C 17.746094 3.933594 17.480469 3.660156 17.445312 3.671875 C 17.425781 3.675781 17.421875 3.667969 17.433594 3.648438 C 17.460938 3.609375 17.269531 3.398438 17.210938 3.398438 C 17.183594 3.398438 17.175781 3.382812 17.1875 3.367188 C 17.199219 3.34375 17.078125 3.203125 16.917969 3.050781 C 16.757812 2.894531 16.640625 2.800781 16.65625 2.832031 C 16.671875 2.863281 16.648438 2.84375 16.597656 2.777344 C 16.550781 2.71875 16.488281 2.683594 16.46875 2.695312 C 16.441406 2.710938 16.433594 2.703125 16.445312 2.683594 C 16.464844 2.65625 16.4375 2.609375 16.394531 2.570312 C 16.347656 2.527344 16.3125 2.511719 16.3125 2.527344 C 16.3125 2.546875 16.285156 2.527344 16.253906 2.484375 C 16.222656 2.445312 16.175781 2.40625 16.15625 2.40625 C 16.136719 2.40625 16.0625 2.347656 15.992188 2.273438 C 15.914062 2.191406 15.84375 2.148438 15.816406 2.167969 C 15.785156 2.183594 15.777344 2.179688 15.796875 2.152344 C 15.828125 2.09375 15.589844 1.929688 15.527344 1.964844 C 15.5 1.980469 15.492188 1.976562 15.503906 1.953125 C 15.539062 1.894531 14.6875 1.34375 14.640625 1.390625 C 14.628906 1.402344 14.597656 1.386719 14.574219 1.355469 C 14.492188 1.25 13.898438 0.980469 13.804688 1.003906 C 13.746094 1.015625 13.726562 1.011719 13.746094 0.980469 C 13.769531 0.933594 13.722656 0.910156 13.636719 0.925781 C 13.617188 0.929688 13.566406 0.898438 13.519531 0.855469 C 13.476562 0.8125 13.394531 0.78125 13.335938 0.789062 C 13.28125 0.792969 13.25 0.78125 13.261719 0.765625 C 13.273438 0.746094 13.257812 0.726562 13.230469 0.726562 C 13.199219 0.726562 13.121094 0.699219 13.058594 0.667969 C 12.949219 0.609375 12.941406 0.609375 12.96875 0.679688 C 12.988281 0.742188 12.984375 0.742188 12.9375 0.6875 C 12.84375 0.578125 12.695312 0.515625 12.664062 0.566406 C 12.640625 0.605469 12.613281 0.605469 12.558594 0.566406 C 12.488281 0.527344 12.488281 0.523438 12.554688 0.542969 C 12.597656 0.554688 12.613281 0.550781 12.601562 0.527344 C 12.566406 0.46875 12.472656 0.476562 12.445312 0.535156 C 12.429688 0.574219 12.417969 0.574219 12.386719 0.535156 C 12.3125 0.429688 12.132812 0.367188 11.9375 0.386719 C 11.820312 0.394531 11.761719 0.386719 11.796875 0.367188 C 11.839844 0.339844 11.835938 0.328125 11.78125 0.308594 C 11.683594 0.269531 11.667969 0.273438 11.691406 0.335938 C 11.710938 0.375 11.671875 0.371094 11.566406 0.320312 C 11.371094 0.230469 11.148438 0.183594 11.148438 0.234375 C 11.148438 0.253906 11.039062 0.246094 10.894531 0.214844 C 10.6875 0.164062 10.636719 0.164062 10.605469 0.210938 C 10.574219 0.25 10.5625 0.25 10.546875 0.210938 C 10.535156 0.1875 10.492188 0.160156 10.449219 0.160156 C 10.410156 0.160156 10.363281 0.1875 10.355469 0.210938 C 10.34375 0.242188 10.332031 0.234375 10.332031 0.191406 C 10.328125 0.128906 10.28125 0.121094 9.953125 0.121094 C 9.640625 0.121094 9.585938 0.128906 9.605469 0.183594 Z M 6.464844 4.925781 C 6.734375 5.066406 6.914062 5.242188 7.035156 5.492188 C 7.1875 5.796875 7.195312 6.230469 7.058594 6.539062 C 6.9375 6.796875 6.679688 7.046875 6.414062 7.167969 C 6.128906 7.296875 5.484375 7.296875 5.195312 7.171875 C 4.9375 7.054688 4.710938 6.84375 4.589844 6.605469 C 4.503906 6.441406 4.488281 6.355469 4.488281 6.027344 C 4.488281 5.570312 4.558594 5.410156 4.867188 5.132812 C 5.167969 4.867188 5.34375 4.8125 5.859375 4.824219 C 6.210938 4.835938 6.324219 4.855469 6.464844 4.925781 Z M 13.160156 8.03125 C 13.90625 8.089844 14.609375 8.535156 15.011719 9.191406 C 15.21875 9.527344 15.394531 10.082031 15.449219 10.578125 C 15.480469 10.839844 15.492188 11.714844 15.484375 13.085938 L 15.472656 15.191406 L 14.273438 15.203125 L 13.074219 15.210938 L 13.074219 13.242188 C 13.074219 12.144531 13.054688 11.140625 13.03125 10.984375 C 12.953125 10.449219 12.667969 10.0625 12.269531 9.953125 C 12.019531 9.882812 11.578125 9.917969 11.363281 10.023438 C 11.144531 10.136719 10.921875 10.363281 10.78125 10.617188 L 10.675781 10.820312 L 10.664062 13.019531 L 10.652344 15.210938 L 8.238281 15.210938 L 8.238281 8.171875 L 10.65625 8.171875 L 10.65625 9.074219 L 10.746094 8.957031 C 11.050781 8.554688 11.433594 8.273438 11.867188 8.132812 C 12.128906 8.046875 12.640625 7.96875 12.808594 7.992188 C 12.851562 8 13.011719 8.015625 13.160156 8.03125 Z M 7.007812 11.691406 L 7.007812 15.210938 L 5.8125 15.203125 L 4.609375 15.191406 L 4.597656 11.679688 L 4.589844 8.171875 L 7.007812 8.171875 Z M 7.007812 11.691406 "/>
</g>
</svg>
