<?xml version="1.0" encoding="UTF-8"?>
<svg xmlns="http://www.w3.org/2000/svg" xmlns:xlink="http://www.w3.org/1999/xlink" width="20pt" height="20pt" viewBox="0 0 20 20" version="1.1">
<g id="surface1">
<path style=" stroke:none;fill-rule:nonzero;fill:rgb(33.333333%,51.764706%,96.470588%);fill-opacity:1;" d="M 4.542969 0.320312 C 4.308594 0.4375 4.082031 0.613281 3.433594 1.164062 C 2.839844 1.675781 2.453125 2.070312 2.179688 2.449219 C 1.324219 3.648438 0.886719 5.117188 0.996094 6.449219 C 1.167969 8.496094 2.359375 10.996094 4.34375 13.476562 C 7.078125 16.882812 9.765625 18.929688 12.394531 19.597656 C 12.773438 19.695312 13.410156 19.804688 13.582031 19.804688 C 13.703125 19.804688 13.710938 19.8125 13.710938 19.902344 C 13.710938 20 13.714844 20 13.886719 20 C 14.0625 20 14.066406 19.996094 14.066406 19.90625 C 14.066406 19.816406 14.066406 19.816406 14.308594 19.792969 C 15.109375 19.730469 16.242188 19.324219 16.984375 18.839844 C 17.738281 18.34375 18.972656 17.1875 19.136719 16.8125 C 19.195312 16.679688 19.195312 16.667969 19.144531 16.511719 C 19.050781 16.230469 18.785156 15.878906 18.289062 15.382812 C 17.570312 14.664062 16.640625 13.898438 16.066406 13.566406 C 15.75 13.378906 15.371094 13.230469 15.164062 13.203125 C 14.777344 13.160156 14.21875 13.527344 13.210938 14.480469 C 12.789062 14.878906 12.652344 14.992188 12.453125 15.089844 L 12.214844 15.210938 L 11.5 15.210938 C 10.707031 15.210938 10.660156 15.199219 10.175781 14.960938 C 9.554688 14.652344 8.933594 14.15625 8.113281 13.320312 C 6.503906 11.671875 5.429688 10.046875 5.261719 9 C 5.214844 8.730469 5.214844 7.898438 5.257812 7.675781 C 5.304688 7.414062 5.453125 7.132812 5.636719 6.949219 C 5.726562 6.859375 5.976562 6.648438 6.195312 6.476562 C 6.839844 5.976562 7.324219 5.519531 7.507812 5.25 C 7.6875 4.976562 7.785156 4.734375 7.78125 4.546875 C 7.773438 4.101562 7.316406 3.136719 6.601562 2.066406 C 5.933594 1.0625 5.453125 0.539062 4.996094 0.304688 C 4.800781 0.207031 4.769531 0.207031 4.542969 0.320312 Z M 4.542969 0.320312 "/>
</g>
</svg>
