<?xml version="1.0" encoding="UTF-8"?>
<svg xmlns="http://www.w3.org/2000/svg" xmlns:xlink="http://www.w3.org/1999/xlink" width="20pt" height="10pt" viewBox="0 0 20 10" version="1.1">
<g id="surface1">
<path style=" stroke:none;fill-rule:nonzero;fill:rgb(33.333333%,51.764706%,96.470588%);fill-opacity:1;" d="M 4.484375 0.605469 C 4.238281 0.613281 4.15625 0.625 4.070312 0.65625 C 3.929688 0.707031 3.773438 0.820312 3.648438 0.957031 C 3.460938 1.164062 3.394531 1.332031 3.375 1.664062 L 3.363281 1.867188 L 3.082031 1.878906 C 2.410156 1.914062 2.179688 1.984375 1.917969 2.25 C 1.683594 2.484375 1.660156 2.574219 1.636719 3.339844 C 1.625 3.648438 1.613281 3.925781 1.613281 3.957031 L 1.613281 4.011719 L 1.21875 4.03125 L 0.828125 4.050781 L 0.660156 4.128906 C 0.378906 4.265625 0.203125 4.46875 0.136719 4.726562 C 0.0546875 5.074219 0.429688 5.535156 0.867188 5.617188 C 0.921875 5.628906 1.105469 5.640625 1.273438 5.648438 C 1.492188 5.65625 1.582031 5.667969 1.597656 5.683594 C 1.613281 5.703125 1.625 5.910156 1.636719 6.328125 C 1.65625 7.152344 1.679688 7.230469 1.964844 7.5 C 2.214844 7.734375 2.371094 7.78125 2.953125 7.796875 L 3.363281 7.804688 L 3.378906 7.988281 C 3.402344 8.367188 3.492188 8.578125 3.71875 8.785156 C 3.925781 8.980469 4.074219 9.042969 4.40625 9.070312 C 4.695312 9.09375 5.070312 9.082031 5.28125 9.039062 C 5.480469 9 5.605469 8.933594 5.773438 8.78125 C 5.929688 8.636719 6.023438 8.488281 6.0625 8.304688 C 6.078125 8.230469 6.089844 7.765625 6.101562 6.929688 C 6.109375 6.230469 6.117188 5.660156 6.117188 5.65625 C 6.121094 5.65625 7.855469 5.652344 9.976562 5.652344 L 13.835938 5.652344 L 13.84375 5.695312 C 13.851562 5.71875 13.863281 6.296875 13.875 6.984375 C 13.886719 7.78125 13.902344 8.269531 13.914062 8.332031 C 13.972656 8.578125 14.21875 8.851562 14.507812 8.992188 L 14.667969 9.066406 L 15.828125 9.066406 L 15.972656 8.992188 C 16.050781 8.945312 16.183594 8.851562 16.257812 8.78125 C 16.480469 8.578125 16.570312 8.371094 16.597656 7.996094 C 16.605469 7.890625 16.621094 7.820312 16.636719 7.820312 C 16.894531 7.8125 17.394531 7.777344 17.515625 7.753906 C 17.792969 7.703125 17.972656 7.589844 18.140625 7.359375 C 18.292969 7.15625 18.304688 7.125 18.324219 6.820312 C 18.332031 6.667969 18.339844 6.417969 18.34375 6.269531 C 18.34375 6.117188 18.351562 5.917969 18.359375 5.828125 L 18.371094 5.664062 L 18.671875 5.652344 C 19.191406 5.632812 19.320312 5.59375 19.550781 5.390625 C 19.707031 5.253906 19.796875 5.117188 19.839844 4.945312 C 19.90625 4.671875 19.660156 4.269531 19.335938 4.125 C 19.199219 4.066406 19.058594 4.042969 18.667969 4.027344 L 18.359375 4.015625 L 18.359375 3.964844 C 18.359375 3.941406 18.351562 3.660156 18.339844 3.339844 C 18.316406 2.566406 18.292969 2.484375 18.058594 2.25 C 17.796875 1.984375 17.566406 1.914062 16.894531 1.878906 L 16.613281 1.867188 L 16.601562 1.664062 C 16.578125 1.320312 16.5 1.128906 16.289062 0.914062 C 16.136719 0.761719 15.984375 0.671875 15.792969 0.628906 C 15.664062 0.601562 15.558594 0.597656 15.148438 0.597656 L 14.65625 0.601562 L 14.539062 0.660156 C 14.3125 0.769531 14.128906 0.933594 13.976562 1.171875 L 13.878906 1.320312 L 13.867188 2.667969 L 13.851562 4.015625 L 10 4.023438 C 7.882812 4.027344 6.144531 4.027344 6.140625 4.023438 C 6.132812 4.019531 6.125 3.535156 6.117188 2.949219 C 6.109375 2.363281 6.09375 1.75 6.082031 1.585938 C 6.0625 1.296875 6.0625 1.292969 5.984375 1.144531 C 5.878906 0.949219 5.699219 0.792969 5.460938 0.683594 C 5.296875 0.609375 5.285156 0.609375 5.042969 0.601562 C 4.90625 0.597656 4.65625 0.601562 4.484375 0.605469 Z M 4.484375 0.605469 "/>
</g>
</svg>
