<?xml version="1.0" standalone="no"?>
<!DOCTYPE svg PUBLIC "-//W3C//DTD SVG 20010904//EN"
 "http://www.w3.org/TR/2001/REC-SVG-20010904/DTD/svg10.dtd">
<svg version="1.0" xmlns="http://www.w3.org/2000/svg"
 width="626.000000pt" height="626.000000pt" viewBox="0 0 626.000000 626.000000"
 preserveAspectRatio="xMidYMid meet">
<metadata>
Created by potrace 1.15, written by Peter Selinger 2001-2017
</metadata>
<g transform="translate(0.000000,626.000000) scale(0.100000,-0.100000)"
fill="#5584F6" stroke="none">
<path d="M1630 5291 l-775 -7 -90 -27 c-197 -60 -376 -176 -494 -319 -96 -116
-175 -267 -204 -389 -11 -44 -14 -49 -39 -49 l-28 0 0 -1370 0 -1370 30 0 c22
0 30 -5 30 -18 0 -34 49 -162 92 -243 116 -218 309 -387 537 -470 186 -67 8
-62 2436 -63 2353 0 2244 -2 2410 50 312 99 585 387 658 695 11 44 14 49 39
49 l28 0 0 1370 0 1370 -28 0 c-25 0 -28 5 -39 49 -71 301 -342 592 -643 691
-157 51 -96 49 -1672 53 -810 3 -1822 1 -2248 -2z m3720 -405 l0 -114 -637
-769 c-732 -883 -931 -1121 -1165 -1394 -212 -248 -206 -244 -423 -244 -164 0
-200 8 -273 57 -56 38 -46 26 -1072 1279 l-880 1074 0 113 0 112 2225 0 2225
0 0 -114z m526 -162 c60 -136 57 -59 57 -1589 0 -1092 -2 -1413 -12 -1460 -33
-158 -136 -292 -278 -362 l-77 -38 -350 -6 c-193 -4 -1132 -7 -2086 -7 -954 0
-1893 3 -2086 7 l-350 6 -77 38 c-140 69 -245 205 -278 362 -10 47 -13 359
-13 1460 1 1515 -2 1450 53 1578 l20 47 119 0 119 0 354 -432 c988 -1207 1506
-1834 1651 -2000 105 -119 250 -204 409 -240 54 -12 74 -13 126 -2 102 21 264
100 340 167 72 63 453 517 1642 1955 l473 572 110 0 109 0 25 -56z"/>
</g>
</svg>
