<?xml version="1.0" standalone="no"?>
<!DOCTYPE svg PUBLIC "-//W3C//DTD SVG 20010904//EN"
 "http://www.w3.org/TR/2001/REC-SVG-20010904/DTD/svg10.dtd">
<svg version="1.0" xmlns="http://www.w3.org/2000/svg"
 width="1003.000000pt" height="545.000000pt" viewBox="0 0 1003.000000 545.000000"
 preserveAspectRatio="xMidYMid meet">
<metadata>
Created by potrace 1.15, written by Peter Selinger 2001-2017
</metadata>
<g transform="translate(0.000000,545.000000) scale(0.100000,-0.100000)"
fill="#5584F6" stroke="none">
<path d="M2250 5120 c-125 -5 -165 -10 -208 -27 -71 -29 -150 -90 -212 -164
-94 -113 -127 -205 -137 -385 l-6 -111 -141 -7 c-338 -18 -453 -57 -584 -201
-117 -128 -129 -178 -142 -594 -5 -168 -10 -320 -10 -337 l0 -30 -198 -10
-197 -10 -84 -44 c-141 -74 -230 -184 -262 -326 -42 -189 147 -440 366 -484
28 -6 119 -13 203 -17 111 -4 155 -10 164 -20 7 -9 14 -123 19 -351 10 -448
21 -491 164 -638 125 -128 204 -154 496 -161 l206 -5 7 -101 c13 -206 58 -320
172 -434 104 -106 178 -139 344 -154 146 -13 334 -7 439 16 100 21 163 57 247
141 79 78 125 160 144 259 8 40 15 294 20 750 4 380 9 691 9 693 1 1 872 2
1936 2 l1935 0 4 -23 c3 -12 9 -328 15 -702 6 -434 14 -700 21 -735 28 -133
153 -283 298 -359 l80 -41 291 0 291 0 72 42 c40 24 105 75 143 113 112 111
157 224 171 428 4 59 11 97 18 97 131 3 382 23 441 35 140 29 230 91 315 215
76 111 81 129 91 294 4 83 9 219 10 301 0 83 4 191 8 240 l6 90 150 6 c262 11
326 32 442 142 79 75 123 149 144 242 33 150 -90 368 -252 447 -69 33 -139 45
-336 53 l-153 7 0 27 c0 14 -5 168 -10 341 -13 421 -24 466 -142 595 -131 144
-246 183 -584 201 l-141 7 -6 111 c-11 187 -50 291 -156 407 -76 85 -154 134
-249 156 -64 15 -118 18 -323 17 l-247 -2 -59 -31 c-114 -61 -205 -150 -282
-280 l-49 -80 -7 -735 -7 -734 -1932 -4 c-1062 -2 -1933 -2 -1936 0 -3 2 -8
265 -12 585 -4 320 -12 654 -17 742 -10 158 -10 160 -50 241 -53 107 -142 192
-262 251 -82 40 -87 41 -209 45 -69 2 -195 1 -280 -2z"/>
</g>
</svg>
