<?xml version="1.0" encoding="UTF-8"?>
<svg xmlns="http://www.w3.org/2000/svg" xmlns:xlink="http://www.w3.org/1999/xlink" width="20pt" height="20pt" viewBox="0 0 20 20" version="1.1">
<g id="surface1">
<path style=" stroke:none;fill-rule:nonzero;fill:rgb(33.333333%,51.764706%,96.470588%);fill-opacity:1;" d="M 5.203125 3.09375 L 2.730469 3.117188 L 2.441406 3.203125 C 1.8125 3.394531 1.242188 3.765625 0.867188 4.222656 C 0.558594 4.589844 0.304688 5.074219 0.214844 5.464844 C 0.179688 5.601562 0.167969 5.621094 0.0898438 5.621094 L 0 5.621094 L 0 14.367188 L 0.0976562 14.367188 C 0.167969 14.367188 0.191406 14.382812 0.191406 14.425781 C 0.191406 14.535156 0.347656 14.941406 0.484375 15.199219 C 0.855469 15.898438 1.472656 16.4375 2.199219 16.703125 C 2.792969 16.914062 2.226562 16.898438 9.976562 16.902344 C 17.492188 16.902344 17.140625 16.910156 17.671875 16.742188 C 18.667969 16.425781 19.539062 15.507812 19.773438 14.523438 C 19.808594 14.382812 19.816406 14.367188 19.898438 14.367188 L 19.988281 14.367188 L 19.988281 5.621094 L 19.898438 5.621094 C 19.816406 5.621094 19.808594 5.601562 19.773438 5.464844 C 19.546875 4.5 18.679688 3.574219 17.71875 3.257812 C 17.21875 3.09375 17.414062 3.101562 12.382812 3.085938 C 9.796875 3.078125 6.566406 3.085938 5.203125 3.09375 Z M 17.082031 4.386719 L 17.082031 4.75 L 15.046875 7.207031 C 12.710938 10.027344 12.074219 10.785156 11.328125 11.65625 C 10.652344 12.449219 10.671875 12.4375 9.976562 12.4375 C 9.453125 12.4375 9.339844 12.410156 9.105469 12.253906 C 8.925781 12.132812 8.960938 12.171875 5.683594 8.171875 L 2.875 4.742188 L 2.875 4.023438 L 17.082031 4.023438 Z M 18.761719 4.902344 C 18.953125 5.339844 18.941406 5.09375 18.941406 9.976562 C 18.941406 13.464844 18.9375 14.488281 18.90625 14.640625 C 18.800781 15.144531 18.46875 15.570312 18.015625 15.796875 L 17.769531 15.917969 L 16.652344 15.933594 C 16.039062 15.949219 13.039062 15.957031 9.992188 15.957031 C 6.949219 15.957031 3.949219 15.949219 3.332031 15.933594 L 2.214844 15.917969 L 1.96875 15.796875 C 1.523438 15.574219 1.1875 15.140625 1.082031 14.640625 C 1.050781 14.488281 1.039062 13.492188 1.039062 9.976562 C 1.042969 5.140625 1.035156 5.347656 1.210938 4.9375 L 1.273438 4.789062 L 2.035156 4.789062 L 3.164062 6.167969 C 6.320312 10.023438 7.972656 12.023438 8.433594 12.554688 C 8.769531 12.933594 9.234375 13.207031 9.742188 13.320312 C 9.914062 13.359375 9.976562 13.363281 10.144531 13.328125 C 10.46875 13.261719 10.988281 13.007812 11.230469 12.792969 C 11.460938 12.59375 12.675781 11.144531 16.472656 6.550781 L 17.980469 4.726562 L 18.679688 4.726562 Z M 18.761719 4.902344 "/>
</g>
</svg>
